<?xml version="1.0" encoding="utf-8"?>
<!-- Generator: Adobe Illustrator 16.0.0, SVG Export Plug-In . SVG Version: 6.00 Build 0)  -->
<!DOCTYPE svg PUBLIC "-//W3C//DTD SVG 1.1//EN" "http://www.w3.org/Graphics/SVG/1.1/DTD/svg11.dtd">
<svg version="1.1" id="Layer_1" xmlns="http://www.w3.org/2000/svg" xmlns:xlink="http://www.w3.org/1999/xlink" x="0px" y="0px"
	 width="543.479px" height="92px" viewBox="0 0 543.479 92" enable-background="new 0 0 543.479 92" xml:space="preserve">
<g id="Layer_1_1_" display="none">
	<path display="inline" d="M117.888,57.688c0-8.26-3.304-15.492-9.608-21.497c-6.177-5.882-13.599-8.864-21.954-8.864
		c-8.606,0-16.098,3.101-22.213,9.215c-6.115,6.115-9.229,13.579-9.229,22.187c0,8.66,3.097,16.106,9.217,22.131
		c2.849,2.804,6.191,5.051,9.942,6.677C77.816,89.171,82.388,90,87.638,90c5.34,0,10.645-1.678,15.765-4.986
		c5.123-3.309,9.006-7.539,11.542-13.244l0.936-1.77h-13.464l-0.449,0.266c-1.844,2.486-4.182,4.287-6.949,5.691
		c-2.765,1.402-5.707,2.027-8.746,2.027c-4.504,0-8.648-1.547-12.317-4.519C70.8,70.912,68.752,68,67.732,64h50.156V57.688z
		 M86.273,39.428c4.543,0,8.461,1.818,11.978,4.734c3.081,2.557,5.216,5.838,6.363,9.838H67.939c0.494-2,1.18-3.43,2.047-4.789
		C74.016,42.898,79.343,39.428,86.273,39.428z"/>
	<path display="inline" d="M169.308-101.219c2.383-0.982,5.311-1.481,8.691-1.481c3.28,0,6.591,1.038,9.838,3.089
		c3.261,2.059,5.7,5.088,7.243,8.412L195.499-90h13.789l-0.567-2.182c-2.016-6.691-5.938-12.3-11.663-16.379
		c-5.928-4.219-12.666-6.434-20.031-6.434c-9.177,0-17.077,3.06-23.485,9.169c-6.32,6.023-9.525,13.327-9.525,21.741
		c0,8.362,3.201,15.688,9.518,21.806c2.917,2.83,6.42,5.104,10.409,6.765c4.006,1.668,8.126,2.512,12.243,2.512
		c4.071,0,7.77-0.529,10.996-1.566c10.278-3.304,17.323-10.379,20.947-19.852l0.758-2.58h-14.261l-0.456,1.375
		c-1.717,2.934-4.133,5.601-7.18,7.341c-3.029,1.73-6.384,2.762-9.964,2.762c-5.563,0-10.134-1.736-13.978-5.454
		c-3.88-3.753-5.766-8.031-5.766-13.162c0-5.042,1.886-9.302,5.766-13.056C164.8-98.89,166.906-100.231,169.308-101.219z"/>
	<path display="inline" d="M78.308,42.781C80.691,41.799,83.619,41.3,87,41.3c3.28,0,6.591,1.038,9.838,3.089
		c3.261,2.059,5.7,5.087,7.243,8.412L104.499,54h13.789l-0.567-2.182c-2.016-6.691-5.938-12.3-11.663-16.379
		c-5.928-4.219-12.666-6.434-20.031-6.434c-9.177,0-17.077,3.06-23.485,9.169c-6.32,6.023-9.525,13.327-9.525,21.741
		c0,8.362,3.201,15.688,9.518,21.806c2.917,2.83,6.42,5.104,10.409,6.766c4.006,1.668,8.126,2.512,12.243,2.512
		c4.071,0,7.77-0.529,10.996-1.566c10.278-3.304,17.323-10.379,20.947-19.852l0.758-2.58h-14.261l-0.456,1.375
		c-1.717,2.934-4.133,5.602-7.18,7.341c-3.029,1.729-6.384,2.763-9.964,2.763c-5.563,0-10.134-1.736-13.978-5.455
		c-3.88-3.752-5.766-8.03-5.766-13.162c0-5.041,1.886-9.301,5.766-13.055C73.8,45.11,75.906,43.769,78.308,42.781z"/>
</g>
<g id="Layer_2" display="none">
	<polygon display="inline" points="373.052,-276 344.913,-212.649 326.457,-247.746 301.417,-199.911 308.174,-184.065 
		326.466,-218.225 345.015,-184.129 386.478,-276 	"/>
	<path display="inline" d="M202.353-241.967"/>
	<polygon display="inline" fill="#007BB9" points="202.785,-225.39 211.92,-218.119 243.216,-255 228.443,-255 	"/>
	<polygon display="inline" points="200.888,-255 243.216,-255 253.399,-267 200.888,-267 	"/>
	<g display="inline">
		<path d="M20.908-331.419c10.983,0,19.919,8.936,19.919,19.919s-8.936,19.919-19.919,19.919c-10.983,0-19.92-8.936-19.92-19.919
			S9.924-331.419,20.908-331.419 M20.908-344c-17.949,0-32.5,14.55-32.5,32.5S2.959-279,20.908-279c17.949,0,32.5-14.55,32.5-32.5
			S38.856-344,20.908-344L20.908-344z"/>
	</g>
	<path display="inline" d="M88.408-118.5c15.715,0,28.5,12.785,28.5,28.5s-12.785,28.5-28.5,28.5c-15.715,0-28.5-12.785-28.5-28.5
		S72.693-118.5,88.408-118.5 M88.408-136.5c-25.68,0-46.5,20.818-46.5,46.5s20.82,46.5,46.5,46.5c25.68,0,46.5-20.818,46.5-46.5
		S114.087-136.5,88.408-136.5L88.408-136.5z"/>
	<g display="inline">
		<path d="M257.783-321c6.548,0,11.875,5.327,11.875,11.875s-5.327,11.875-11.875,11.875c-6.548,0-11.875-5.327-11.875-11.875
			S251.235-321,257.783-321 M257.783-328.5c-10.701,0-19.375,8.675-19.375,19.375s8.674,19.375,19.375,19.375
			c10.701,0,19.375-8.675,19.375-19.375S268.484-328.5,257.783-328.5L257.783-328.5z"/>
	</g>
	<path display="inline" fill="#237300" d="M296.908-275.5c-9.456,0-17.918,4.239-23.604,10.916l8.545,8.545
		c3.478-4.526,8.926-7.46,15.061-7.46c10.477,0,19,8.523,19,19s-8.523,19-19,19c-7.676,0-14.285-4.583-17.28-11.147l-9.994,6.892
		c5.244,9.681,15.491,16.255,27.274,16.255c17.12,0,31-13.879,31-31S314.028-275.5,296.908-275.5z"/>
	<g display="inline">
		<polygon fill="none" points="-57.085,-419.78 -59.373,-424.128 -57.087,-419.774 		"/>
		<polygon points="-110.139,-461 -123.574,-461 -107.342,-422.971 -100.429,-436.163 		"/>
		<polygon points="-50.32,-406.927 -56.985,-391.258 -75.534,-425.482 -93.826,-391.331 -100.583,-407.192 -75.543,-455.059 		"/>
		<polygon points="-20.522,-477 -33.948,-477 -56.189,-421.996 -49.399,-409.09 		"/>
	</g>
	<path display="inline" d="M-77.112-135v87h87v-87H-77.112z M-19.444-70.864l-7.449,4.093l-8.178-18.783l-10.1,9.827l-0.01-42.514
		l30.549,26.329l-12.939,2.439L-19.444-70.864z"/>
	<polygon display="inline" points="531.533,-468 520.231,-468 451.811,-298.793 442.699,-259.09 	"/>
	<polygon display="inline" points="-3.112,-306 39.216,-306 49.399,-318 -3.112,-318 	"/>
	<polygon display="inline" points="332.888,-142 596.487,-142 659.899,-147 332.888,-147 	"/>
</g>
<g display="none">
	<g display="inline">
		<polygon points="380.785,41.539 389.712,48.607 412.3,22.202 412.32,22.267 431.399,0 378.888,0 378.888,12 406.443,12 		"/>
		<path d="M426.546,39.111c-4.228-4.094-9.315-6.764-15.183-8.141l-9.513,11.114c0.905-0.124,1.827-0.208,2.786-0.208
			c5.354,0,9.791,1.814,13.564,5.586c3.771,3.772,5.604,8.158,5.604,13.427c0,4.396-1.383,8.191-4.189,11.555l9.651,7.678
			c4.401-5.395,6.639-11.805,6.639-19.112C435.908,52.378,432.758,45.127,426.546,39.111z"/>
	</g>
	<path display="inline" d="M415.931,75.896c-1.212,0.879-2.524,1.646-3.957,2.263c-2.313,0.997-5.176,1.502-8.506,1.502
		c-3.234,0-6.54-1.118-9.825-3.322c-3.267-2.188-5.609-5.2-6.965-8.948l-0.5-1.383l-11.671,3.948l0.506,1.433
		c2.143,6.072,6.028,11.066,11.553,14.846c2.574,1.762,5.438,3.158,8.51,4.154c3.083,0.996,6.541,1.502,10.278,1.502
		c3.779,0,7.605-0.806,11.371-2.394c3.382-1.425,6.43-3.356,9.083-5.742L415.931,75.896z"/>
</g>
<path display="none" fill="#00D8D5" d="M543.479,0l-41.464,91.85l-18.549-34.117l-18.292,34.162l-6.757-15.844l25.039-47.83
	l18.456,35.107L530.052,0H543.479z"/>
<g>
	<path d="M39.065,57.344c-2.639-1.258-5.506-2.236-8.517-2.908c-2.853-0.645-5.544-1.359-8.001-2.127
		c-2.365-0.738-4.353-1.664-5.911-2.757c-1.311-0.911-1.948-2.36-1.948-4.43c0-2.056,0.759-3.468,2.396-4.447
		c1.787-1.082,3.981-1.631,6.521-1.631c2.568,0,4.757,0.471,6.512,1.403c1.616,0.848,2.862,3.198,3.703,5.975L34.143,48h12.719
		l-0.384-2.324c-1.309-6.169-4-10.803-7.999-13.268c-3.928-2.42-8.847-3.776-14.618-3.776c-5.827,0-10.937,1.512-15.186,4.619
		c-4.384,3.203-6.607,7.92-6.607,14.082c0,3.14,0.833,5.901,2.475,8.239c1.616,2.303,4.048,4.205,7.228,5.668
		c2.625,1.207,5.467,2.177,8.448,2.892c2.847,0.687,5.538,1.441,8.004,2.257c5.246,1.706,7.906,4.035,7.906,6.926
		c0,3.367-1.14,7.842-10.992,7.842c-3.281,0-5.973-0.688-8.008-2.049c-1.975-1.305-3.415-3.155-4.279-6.479L12.558,72H0l0.292,1.256
		c2.104,12.563,10.291,18.686,24.335,18.686c3.229,0,6.272-0.51,9.045-1.271c2.828-0.771,5.448-2.012,7.788-3.564
		c4.837-3.207,7.29-8.248,7.29-14.922C48.75,65.423,45.492,60.41,39.065,57.344z"/>
	<path d="M174.888,37.622c-5-5.664-12.133-8.533-19.963-8.533c-8.311,0-15.343,3.23-21.018,9.603
		c-5.472,6.144-8.217,13.479-8.217,21.799c0,8.319,2.789,15.655,8.26,21.799c5.676,6.371,12.656,9.603,20.967,9.603
		c7.831,0,14.971-2.869,19.971-8.533V92h12V31h-12V37.622z M156.472,79.791c-5.314,0-9.654-1.885-13.269-5.764
		c-3.622-3.887-5.382-8.313-5.382-13.537c0-5.223,1.76-9.65,5.383-13.538c3.613-3.878,7.953-5.763,13.268-5.763
		s9.654,1.885,13.268,5.763c3.622,3.888,5.383,8.315,5.383,13.538c0,5.224-1.761,9.65-5.383,13.537
		C166.126,77.906,161.787,79.791,156.472,79.791z"/>
	<path d="M351.063,31.697c-2.7-1.259-6.237-1.896-10.513-1.896c-4.358,0-8.317,1.159-11.68,3.445
		c-1.83,1.246-2.982,2.72-4.982,4.407V0h-12v92h12V65.752c0-7.62,1.339-13.443,3.894-17.309c1.368-2.071,3.191-3.694,5.377-4.824
		c2.199-1.14,5.172-1.718,8.811-1.718c3.386,0,5.963,1.071,7.371,3.273c1.525,2.387,2.549,5.329,2.549,8.747V92h12V53.922
		c0-6.966-2.063-12.694-5.752-17.028C356.268,34.7,353.759,32.952,351.063,31.697z"/>
	<path d="M262.308,43.674c2.383-0.982,5.311-1.481,8.691-1.481c3.279,0,6.591,1.038,9.838,3.089c3.262,2.059,5.7,5.142,7.243,8.466
		L288.499,55h13.789l-0.566-2.234c-2.017-6.691-5.938-12.328-11.664-16.406c-5.928-4.219-12.666-6.447-20.031-6.447
		c-9.177,0-17.077,3.053-23.485,9.162c-6.32,6.023-9.525,13.323-9.525,21.737c0,8.361,3.201,15.688,9.518,21.805
		c2.917,2.83,6.42,5.103,10.409,6.764c4.006,1.668,8.126,2.512,12.243,2.512c4.071,0,7.77-0.529,10.996-1.566
		c10.278-3.305,17.323-10.325,20.947-19.799L301.886,68h-14.261l-0.456,1.32c-1.717,2.935-4.133,5.574-7.18,7.313
		c-3.029,1.73-6.385,2.749-9.964,2.749c-5.563,0-10.134-1.742-13.978-5.461c-3.88-3.753-5.766-8.035-5.766-13.166
		c0-5.042,1.886-9.303,5.766-13.057C257.8,46.005,259.906,44.661,262.308,43.674z"/>
	<path d="M228.201,47.539c1.418-3.985,3.506-7.722,6.273-11.191c-2.819-2.961-5.938-3.941-5.938-3.941
		c-1.959-0.832-3.85-1.255-5.995-1.255c-5.354,0-9.653,2.284-12.653,6.803V32h-12v60h12V61.545c0-4.289,0.855-8.188,2.838-11.591
		c1.008-1.729,2.158-3.206,3.662-4.391c1.402-1.104,3.043-1.642,5.048-1.642c1.967,0,3.683,0.785,5.478,2.401L228.201,47.539z"/>
	<path d="M104.161,70c-3.517,5-9.758,9.42-16.885,9.42c-9.074,0-16.735-6.42-19.13-14.42h21.993h16.267h12.898
		c0.305-2,0.473-3.749,0.473-5.625c0-17.949-14.552-32.563-32.5-32.563c-17.949,0-32.5,14.52-32.5,32.469s14.551,32.609,32.5,32.609
		c14.272,0,26.389-8.892,30.756-21.892L104.161,70L104.161,70z M87.276,39.58c8.705,0,16.105,5.42,18.808,13.42H68.467
		C71.17,45,78.571,39.58,87.276,39.58z"/>
	<path d="M525.052,4l-23.139,57.352l-18.456-35.098l-25.04,47.835l6.757,15.847l18.292-34.16l18.549,34.096L538.479,4H525.052z
		 M451.658,60.081L435.426,22h13.436l9.71,24.939L451.658,60.081z"/>
	<path d="M405.611,30.105L431.399,0h-52.512v12h27.556l-25.658,29.539l9.136,7.234l0.956-1.045
		c3.903-3.903,8.405-5.846,13.762-5.846c5.354,0,9.791,1.812,13.564,5.583c3.771,3.773,5.604,8.156,5.604,13.425
		c0,5.139-1.872,9.461-5.724,13.223c-1.725,1.684-3.78,3.043-6.11,4.047c-2.313,0.997-5.176,1.501-8.506,1.501
		c-3.234,0-6.54-1.118-9.825-3.322c-3.267-2.188-5.609-5.2-6.965-8.948l-0.5-1.383l-11.671,3.948l0.506,1.433
		c2.143,6.072,6.028,11.066,11.553,14.846c2.574,1.762,5.438,3.158,8.51,4.154c3.083,0.996,6.541,1.502,10.278,1.502
		c3.779,0,7.605-0.806,11.371-2.394c3.755-1.582,7.103-3.784,9.95-6.544c6.126-5.932,9.232-13.314,9.232-21.944
		c0-8.631-3.149-15.854-9.361-21.87C420.991,33.76,413.953,30.858,405.611,30.105z"/>
</g>
</svg>
