<?xml version="1.0" encoding="utf-8"?>
<!-- Generator: Adobe Illustrator 16.0.0, SVG Export Plug-In . SVG Version: 6.00 Build 0)  -->
<!DOCTYPE svg PUBLIC "-//W3C//DTD SVG 1.1//EN" "http://www.w3.org/Graphics/SVG/1.1/DTD/svg11.dtd">
<svg version="1.1" id="iconmonstr" xmlns="http://www.w3.org/2000/svg" xmlns:xlink="http://www.w3.org/1999/xlink" x="0px" y="0px"
	 width="26.792px" height="26.792px" viewBox="0 0 26.792 26.792" style="enable-background:new 0 0 26.792 26.792;"
	 xml:space="preserve">
<style type="text/css">
<![CDATA[
	.st0{fill:#FFFFFF;}
]]>
</style>
<path id="gear-1" class="st0" d="M25.333,14.949v-3.232c-1.651-0.587-2.693-0.752-3.219-2.019c0,0,0,0,0-0.001
	c-0.527-1.271,0.1-2.134,0.847-3.707l-2.285-2.285c-1.561,0.742-2.433,1.375-3.707,0.847c0,0,0,0-0.001,0
	c-1.269-0.526-1.435-1.576-2.019-3.219h-3.232c-0.582,1.635-0.749,2.692-2.019,3.219c0,0,0,0-0.001,0
	C8.426,5.08,7.565,4.454,5.99,3.705L3.705,5.99C4.45,7.558,5.08,8.424,4.552,9.697l0,0c-0.527,1.271-1.583,1.438-3.219,2.019v3.232
	c1.632,0.58,2.692,0.749,3.219,2.02h0c0.53,1.282-0.114,2.166-0.847,3.707l2.285,2.285c1.563-0.742,2.434-1.375,3.707-0.847
	c0,0,0.001,0,0.001,0c1.27,0.526,1.436,1.579,2.019,3.219h3.232c0.582-1.636,0.749-2.69,2.027-3.223c0.001,0,0.001,0,0.001,0
	c1.262-0.524,2.12,0.101,3.698,0.851l2.285-2.285c-0.743-1.564-1.375-2.433-0.848-3.706C22.639,15.699,23.7,15.53,25.333,14.949z
	 M13.333,17.334c-2.209,0-4-1.791-4-4.001c0-2.209,1.791-4,4-4c2.21,0,4,1.791,4,4C17.333,15.543,15.543,17.334,13.333,17.334z"/>
</svg>
