<?xml version="1.0" encoding="utf-8"?>
<!-- Generator: Adobe Illustrator 16.0.0, SVG Export Plug-In . SVG Version: 6.00 Build 0)  -->
<!DOCTYPE svg PUBLIC "-//W3C//DTD SVG 1.1//EN" "http://www.w3.org/Graphics/SVG/1.1/DTD/svg11.dtd">
<svg version="1.1" id="Layer_1" xmlns="http://www.w3.org/2000/svg" xmlns:xlink="http://www.w3.org/1999/xlink" x="0px" y="0px"
	 width="600px" height="600px" viewBox="0 0 600 600" style="enable-background:new 0 0 600 600;" xml:space="preserve">
<style type="text/css">
<![CDATA[
	.st0{fill-rule:evenodd;clip-rule:evenodd;fill:none;}
	.st1{fill-rule:evenodd;clip-rule:evenodd;}
]]>
</style>
<g>
	<path class="st0" d="M580,382.588c0,53.188,0,149.082,0,202.268c-185.794,0-371.588,0-557.383,0c0-237.66,0-432.613,0-584.855
		C208.412,0,394.206,0,580,0c0,140.005,0,237.302,0,377.309c-1,0.197-2.023,0.65-2.997,0.555
		c-5.423-0.533-10.854-1.049-16.244-1.855c-8.185-1.225-16.297-3.373-24.511-3.883c-13.202-0.818-26.461-0.637-39.697-0.842
		c-4.107-0.063-8.217-0.01-12.326-0.01c1.277-0.742,2.623-1.055,3.935-1.482c7.565-2.475,15.191-4.775,22.671-7.51
		c15.545-5.682,26.819-16.232,32.908-32.498c2.314-6.186,4.819-12.293,7.076-18.5c4.078-11.224,7.49-22.754,12.23-33.657
		c3.259-7.495,5.591-15.046,6.805-23.08c0.73-4.827,1.618-9.64,2.036-14.497c0.13-1.509-0.628-3.955-1.705-4.567
		c-3.621-2.053-7.445-4.089-11.879-2.625c-0.479,0.159-1.125-0.03-1.641-0.218c-9.149-3.326-18.294-6.667-27.431-10.029
		c-2.211-0.813-4.374-1.777-6.602-2.533c-1.001-0.34-2.195-0.12-3.153-0.532c-6.097-2.624-12-5.901-18.283-7.829
		c-3.443-1.056-7.169-3.62-11.187-1.309c-0.44,0.253-1.259-0.177-1.891-0.336c-6.931-1.75-13.436-1.365-19.599,3.076
		c-6.148,4.429-12.2,8.874-17.106,14.864c-0.808,0.985-2.309,1.521-3.588,1.87c-2.058,0.563-4.189,0.854-6.301,1.158
		c-3.293,0.473-6.588,1.061-9.897,1.232c-3.307,0.173-6.679-0.506-9.946-0.116c-13.99,1.673-27.985,3.376-41.919,5.494
		c-18.921,2.877-37.773,6.244-56.687,9.182c-5.784,0.898-11.777,2.066-17.489,1.394c-14.913-1.756-29.701-4.634-44.581-6.742
		c-14.884-2.108-29.792-4.108-44.74-5.625c-12.25-1.243-24.563-2.014-36.864-2.438c-14.797-0.51-29.614-0.369-44.418-0.689
		c-1.897-0.042-4.087-0.719-5.585-1.884c-2.262-1.76-4.007-4.238-6.021-6.361c-7.962-8.395-17.398-10.645-27.971-6.767
		c-6.224,2.283-12.265,5.128-18.338,7.843c-4.364,1.951-8.479,4.851-13.009,5.953c-4.447,1.082-8.519,2.712-12.53,4.788
		c-3.339,1.727-6.684,3.441-10.041,5.132c-3.063,1.542-4.103,3.232-3.62,6.746c0.785,5.706,1.832,11.371,2.597,17.079
		c0.726,5.412,2.661,10.267,5.051,15.105c3.418,6.92,6.352,14.11,9.321,21.264c0.623,1.498,0.243,3.434,0.789,4.99
		c0.851,2.422,2.197,4.646,3.163,7.031c4.039,9.979,7.698,20.139,12.097,29.938c4.791,10.668,12.86,18.002,23.191,22.752
		c9.89,4.549,20.211,7.494,30.729,9.826c1.621,0.361,3.232,0.773,4.848,1.158c-4.304,0.635-8.508,0.426-12.687,0.674
		c-10.98,0.652-21.971,1.275-32.912,2.395c-3.936,0.402-7.743,2.191-11.609,3.348c0.069,0.42,0.137,0.84,0.206,1.258
		c2.039-0.102,4.112,0.014,6.11-0.34c13.411-2.381,26.957-2.223,40.471-2.246c15.771-0.027,31.542,0.539,47.312,0.545
		c23.989,0.012,47.979-0.359,71.968-0.307c7.447,0.016,14.94,0.488,22.325,1.477c6.98,0.934,13.838,2.857,20.765,4.258
		c1.534,0.309,3.135,0.254,4.706,0.365c0.042-0.281,0.083-0.561,0.125-0.84c-5.413-2.902-11.107-5.131-17.091-6.287
		c-14.818-2.859-29.797-3.848-44.854-3.648c-2.306,0.031-4.613,0.004-6.92,0.004c0.804-0.766,1.669-0.98,2.53-1.217
		c5.415-1.482,10.904-2.715,16.226-4.502c13.649-4.582,24.734-12.793,31.79-26.158c2.929-5.551,5.751-11.211,8.039-17.072
		c3.208-8.223,5.907-16.664,8.758-25.037c2.921-8.578,8.385-14.208,17.195-15.07c5.894-0.578,11.923-0.593,17.813-0.003
		c6.657,0.667,11.147,5.095,13.899,11.369c0.853,1.944,1.351,4.055,2.075,6.065c3.892,10.777,7.452,21.705,11.789,32.281
		c6.484,15.814,17.505,26.809,33.452,31.893c3.922,1.25,7.936,2.186,11.905,3.271c0.738,0.201,1.473,0.424,2.209,0.635
		c-4.55,0.66-9.051,0.607-13.468,1.219c-5.702,0.789-11.428,1.766-16.953,3.373c-2.142,0.623-3.824,3.125-5.571,4.928
		c-0.313,0.32-0.106,1.52,0.226,2.072c0.175,0.289,1.188,0.201,1.748,0.023c2.139-0.682,4.218-1.572,6.368-2.201
		c10.977-3.205,22.271-3.662,33.559-4.086c13.337-0.502,26.683-0.787,40.015-1.393c19.204-0.871,38.397-2.01,57.601-2.904
		c8.659-0.402,17.333-0.715,25.997-0.656c7.897,0.055,15.884,0.014,23.667,1.195C559.036,377.611,569.485,380.34,580,382.588z"/>
	<path class="st1" d="M580,382.588c-10.515-2.248-20.964-4.977-31.568-6.584c-7.783-1.182-15.77-1.141-23.667-1.195
		c-8.664-0.059-17.338,0.254-25.997,0.656c-19.203,0.895-38.396,2.033-57.601,2.904c-13.332,0.605-26.678,0.891-40.015,1.393
		c-11.287,0.424-22.582,0.881-33.559,4.086c-2.15,0.629-4.229,1.52-6.368,2.201c-0.56,0.178-1.573,0.266-1.748-0.023
		c-0.332-0.553-0.538-1.752-0.226-2.072c1.747-1.803,3.43-4.305,5.571-4.928c5.525-1.607,11.251-2.584,16.953-3.373
		c4.417-0.611,8.918-0.559,13.468-1.219c-0.736-0.211-1.471-0.434-2.209-0.635c-3.97-1.086-7.983-2.021-11.905-3.271
		c-15.947-5.084-26.968-16.078-33.452-31.893c-4.337-10.576-7.897-21.504-11.789-32.281c-0.725-2.01-1.223-4.121-2.075-6.065
		c-2.752-6.274-7.242-10.702-13.899-11.369c-5.89-0.59-11.919-0.575-17.813,0.003c-8.81,0.861-14.273,6.492-17.195,15.07
		c-2.851,8.373-5.55,16.814-8.758,25.037c-2.287,5.861-5.109,11.521-8.039,17.072c-7.055,13.365-18.14,21.576-31.79,26.158
		c-5.321,1.787-10.811,3.02-16.226,4.502c-0.86,0.236-1.726,0.451-2.53,1.217c2.307,0,4.614,0.027,6.92-0.004
		c15.057-0.199,30.036,0.789,44.854,3.648c5.984,1.156,11.679,3.385,17.091,6.287c-0.042,0.279-0.083,0.559-0.125,0.84
		c-1.57-0.111-3.171-0.057-4.706-0.365c-6.927-1.4-13.785-3.324-20.765-4.258c-7.385-0.988-14.878-1.461-22.325-1.477
		c-23.989-0.053-47.979,0.318-71.968,0.307c-15.771-0.006-31.541-0.572-47.312-0.545c-13.514,0.023-27.06-0.135-40.471,2.246
		c-1.998,0.354-4.071,0.238-6.11,0.34c-0.068-0.418-0.137-0.838-0.206-1.258c3.866-1.156,7.673-2.945,11.609-3.348
		c10.941-1.119,21.932-1.742,32.912-2.395c4.179-0.248,8.383-0.039,12.687-0.674c-1.615-0.385-3.227-0.797-4.848-1.158
		c-10.518-2.332-20.84-5.277-30.729-9.826c-10.331-4.75-18.4-12.084-23.191-22.752c-4.399-9.799-8.058-19.959-12.097-29.938
		c-0.965-2.385-3.329-10.523-3.952-12.021c-2.97-7.154-5.903-14.344-9.321-21.264c-2.39-4.838-4.326-9.693-5.051-15.105
		c-0.765-5.708-1.812-11.374-2.597-17.079c-0.483-3.514,0.557-5.204,3.62-6.746c3.357-1.69,31.216-13.922,35.58-15.873
		c6.074-2.715,12.114-5.56,18.338-7.843c10.573-3.878,20.008-1.628,27.971,6.767c2.013,2.123,3.758,4.601,6.021,6.361
		c1.498,1.166,3.688,1.843,5.585,1.884c14.805,0.32,29.622,0.179,44.418,0.689c12.302,0.424,24.615,1.195,36.864,2.438
		c14.947,1.517,29.855,3.517,44.74,5.625c14.88,2.107,29.668,4.986,44.581,6.742c5.712,0.673,11.705-0.495,17.489-1.394
		c18.913-2.938,37.766-6.305,56.687-9.182c13.934-2.118,27.929-3.821,41.919-5.494c3.268-0.391,6.64,0.289,9.946,0.116
		c3.31-0.172,6.604-0.759,9.897-1.232c2.111-0.304,4.243-0.595,6.301-1.158c1.279-0.349,2.78-0.884,3.588-1.87
		c4.906-5.99,10.958-10.435,17.106-14.864c6.163-4.441,12.668-4.826,19.599-3.076c0.632,0.159,59.396,19.242,68.546,22.568
		c0.516,0.188,1.161,0.376,1.641,0.218c4.434-1.463,8.258,0.573,11.879,2.625c1.077,0.612,1.835,3.058,1.705,4.567
		c-0.418,4.856-1.306,9.67-2.036,14.497c-1.214,8.034-3.546,15.584-6.805,23.08c-4.74,10.902-8.152,22.433-12.23,33.657
		c-2.257,6.207-4.762,12.314-7.076,18.5c-6.089,16.266-17.363,26.816-32.908,32.498c-7.479,2.734-15.105,5.035-22.671,7.51
		c-1.312,0.428-2.657,0.74-3.935,1.482c4.109,0,8.219-0.053,12.326,0.01c13.236,0.205,26.495,0.023,39.697,0.842
		c8.214,0.51,16.326,2.658,24.511,3.883c5.39,0.807,10.821,1.322,16.244,1.855c0.974,0.096,1.997-0.357,2.997-0.555
		C580,379.068,580,380.828,580,382.588z M265.264,326.068c0.149,0.066,0.297,0.131,0.446,0.197
		c1.148-3.662,2.354-7.303,3.431-10.986c3.079-10.529,5.061-21.222,4.299-32.323c-0.689-10.052-5.135-17.842-13.576-22.472
		c-4.723-2.589-10.026-4.342-15.261-5.532c-43.483-9.893-87.309-13.14-131.54-6.489c-11.253,1.691-22.548,3.385-33.198,7.92
		c-1.896,0.808-3.912,1.518-5.549,2.748c-3.895,2.925-7.135,6.12-6.107,12.139c0.677,3.969-0.171,8.194,0.19,12.253
		c1.387,15.547,5.09,30.552,10.161,45.205c4.819,13.928,12.986,24.738,26.999,28.953c9.636,2.898,19.524,5.236,29.453,6.635
		c25.629,3.613,51.333,3.855,76.951-0.471c9.021-1.523,18.07-3.033,26.474-7.129c9.328-4.547,15.904-11.406,18.932-22.121
		c2.639-9.34,6.162-18.412,9.516-27.514c0.986-2.678,2.723-5.053,4.117-7.568c0.426,0.199,0.853,0.398,1.279,0.599
		C269.944,308.764,267.604,317.416,265.264,326.068z M466.511,241.952c-25.06,0.425-44.372,2.283-63.583,5.412
		c-13.487,2.197-26.83,4.998-39.68,9.949c-6.866,2.646-12.003,7.338-15.199,14.32c-3.061,6.682-2.493,13.727-1.946,20.739
		c0.233,2.982,0.628,6.078,1.637,8.849c3.984,10.943,8.098,21.842,12.476,32.619c1.579,3.891,3.557,7.828,6.193,10.971
		c5.205,6.207,12.088,9.984,19.692,12.064c16.092,4.4,32.558,5.865,49.1,5.512c11.258-0.244,22.52-1.387,33.729-2.627
		c13.027-1.441,25.672-4.668,38.022-9.439c8.269-3.195,13.911-9.674,19.866-15.711c2.467-2.502,3.87-6.498,4.952-10.082
		c3.174-10.506,6.412-21.035,8.731-31.767c2.13-9.863,3.518-19.922,1.418-30.184c-1.193-5.83-3.638-9.839-9.388-11.259
		c-2.354-0.582-4.607-1.605-6.952-2.236C504.354,243.371,482.693,241.966,466.511,241.952z M477.913,228.507
		c0.202-0.386,0.405-0.772,0.608-1.158c-1.362-1.229-2.626-3.325-4.106-3.51c-3.22-0.4-5.267,2.336-8.155,4.668
		C470.71,228.507,474.312,228.507,477.913,228.507z M117.234,233.227c0.112-0.364,0.224-0.727,0.335-1.091
		c-1.837-1.321-3.676-2.642-5.514-3.963c-0.969,1.603-1.937,3.204-3.055,5.054C112.233,233.227,114.734,233.227,117.234,233.227z
		 M258.582,339.365c0.349,0.197,0.698,0.395,1.046,0.592c1.009-2.113,2.019-4.229,3.027-6.34c-0.245-0.139-0.491-0.275-0.736-0.414
		C260.806,335.256,259.693,337.311,258.582,339.365z"/>
	<path class="st0" d="M265.264,326.068c2.339-8.652,4.68-17.305,7.019-25.956c-0.427-0.2-0.853-0.399-1.279-0.599
		c-1.394,2.515-3.13,4.89-4.117,7.568c-3.354,9.102-6.877,18.174-9.516,27.514c-3.028,10.715-9.604,17.574-18.932,22.121
		c-8.404,4.096-17.454,5.605-26.474,7.129c-25.618,4.326-51.322,4.084-76.951,0.471c-9.929-1.398-19.817-3.736-29.453-6.635
		c-14.013-4.215-22.18-15.025-26.999-28.953c-5.071-14.652-8.774-29.658-10.161-45.205c-0.361-4.059,0.486-8.284-0.19-12.253
		c-1.028-6.02,2.212-9.214,6.107-12.139c1.637-1.229,3.652-1.94,5.549-2.748c10.649-4.535,21.944-6.229,33.198-7.92
		c44.23-6.65,88.056-3.404,131.54,6.489c5.235,1.19,10.538,2.943,15.261,5.532c8.441,4.629,12.886,12.42,13.576,22.472
		c0.761,11.101-1.221,21.793-4.299,32.323c-1.077,3.684-2.283,7.324-3.431,10.986C265.562,326.199,265.413,326.135,265.264,326.068z
		 M168.959,298.865c1.168,2.014,1.815,3.543,2.813,4.76c2.237,2.727,3.818,2.475,4.843-1.014c1.604-5.462,1.415-10.951-2.129-15.583
		c-9.315-12.175-18.771-24.232-28.258-36.263c-2.462-3.123-9.156-3.715-12.795-1.283c0.607,0.857,1.192,1.711,1.807,2.542
		c3.703,5.012,7.543,9.918,11.091,15.048c6.828,9.87,13.468,19.882,20.261,29.78C167.271,297.842,168.458,298.452,168.959,298.865z"
		/>
	<path class="st0" d="M466.511,241.952c16.183,0.014,37.843,1.419,59.069,7.129c2.345,0.631,4.599,1.654,6.952,2.236
		c5.75,1.42,8.194,5.43,9.388,11.259c2.1,10.262,0.712,20.321-1.418,30.184c-2.319,10.732-5.558,21.261-8.731,31.767
		c-1.082,3.584-2.485,7.58-4.952,10.082c-5.955,6.037-11.598,12.516-19.866,15.711c-12.351,4.771-24.995,7.998-38.022,9.439
		c-11.21,1.24-22.472,2.383-33.729,2.627c-16.542,0.354-33.008-1.111-49.1-5.512c-7.604-2.08-14.487-5.857-19.692-12.064
		c-2.637-3.143-4.614-7.08-6.193-10.971c-4.378-10.777-8.491-21.676-12.476-32.619c-1.009-2.771-1.403-5.867-1.637-8.849
		c-0.547-7.012-1.114-14.057,1.946-20.739c3.196-6.982,8.333-11.674,15.199-14.32c12.85-4.951,26.192-7.752,39.68-9.949
		C422.139,244.235,441.451,242.377,466.511,241.952z M416.54,303.76c0.762-2.441,0.927-4.338,1.839-5.682
		c11.388-16.776,22.887-33.469,34.337-50.199c0.571-0.836,0.945-1.82,1.671-3.247c-3.343,0-6.172-0.006-9.002,0.002
		c-2.193,0.006-3.869,0.891-5.229,2.808c-2.772,3.911-5.795,7.625-8.584,11.524c-6.255,8.741-12.402,17.566-18.646,26.315
		c-3.602,5.044-3.932,10.584-2.537,16.437c0.518,2.178,1.822,3.076,3.961,2.535C415.333,304.004,416.327,303.807,416.54,303.76z
		 M539.591,263.405c-0.708-3.885-0.449-8.534-4.647-10.076c-5.232-1.922-10.728-3.063-16.118-4.501
		c-0.359-0.096-0.801,0.142-1.541,0.294c0.624,0.577,0.909,1,1.297,1.176c3.64,1.652,7.271,3.333,10.958,4.864
		c3.725,1.545,7.994,2.257,9.113,7.35C538.73,262.866,539.268,263.109,539.591,263.405z"/>
	<path class="st0" d="M477.913,228.507c-3.602,0-7.203,0-11.653,0c2.889-2.332,4.936-5.068,8.155-4.668
		c1.48,0.185,2.744,2.28,4.106,3.51C478.318,227.734,478.115,228.121,477.913,228.507z"/>
	<path class="st0" d="M117.234,233.227c-2.5,0-5.001,0-8.234,0c1.118-1.85,2.086-3.451,3.055-5.054
		c1.838,1.321,3.677,2.642,5.514,3.963C117.458,232.5,117.346,232.863,117.234,233.227z"/>
	<path class="st0" d="M258.582,339.365c1.112-2.055,2.225-4.109,3.337-6.162c0.245,0.139,0.491,0.275,0.736,0.414
		c-1.008,2.111-2.018,4.227-3.027,6.34C259.279,339.76,258.93,339.563,258.582,339.365z"/>
	<path class="st1" d="M166.592,296.853c-6.793-9.898-13.433-19.911-20.261-29.78c-3.548-5.13-7.388-10.036-11.091-15.048
		c-0.614-0.832-1.2-1.686-1.807-2.542c3.64-2.432,10.333-1.839,12.795,1.283c9.486,12.031,18.942,24.088,28.258,36.263
		c3.543,4.632,3.732,10.12,2.129,15.583c-1.025,3.488-2.605,3.74-4.843,1.014C170.775,302.408,167.271,297.842,166.592,296.853z"/>
	<path class="st1" d="M414.35,304.254c-2.139,0.541-3.443-0.357-3.961-2.535c-1.395-5.853-1.064-11.393,2.537-16.437
		c6.244-8.75,12.392-17.575,18.646-26.315c2.789-3.899,5.812-7.613,8.584-11.524c1.359-1.917,3.035-2.802,5.229-2.808
		c2.83-0.009,5.659-0.002,9.002-0.002c-0.726,1.427-1.1,2.411-1.671,3.247C441.266,264.609,415.333,304.004,414.35,304.254z"/>
	<path class="st1" d="M539.591,263.405c-0.323-0.295-0.86-0.539-0.938-0.893c-1.119-5.093-5.389-5.805-9.113-7.35
		c-3.687-1.531-7.318-3.212-10.958-4.864c-0.388-0.176-0.673-0.599-1.297-1.176c0.74-0.152,1.182-0.39,1.541-0.294
		c5.391,1.439,10.886,2.58,16.118,4.501C539.142,254.871,538.883,259.52,539.591,263.405z"/>
</g>
</svg>
