<?xml version="1.0" encoding="utf-8"?>
<!-- Generator: Adobe Illustrator 16.0.0, SVG Export Plug-In . SVG Version: 6.00 Build 0)  -->
<!DOCTYPE svg PUBLIC "-//W3C//DTD SVG 1.1//EN" "http://www.w3.org/Graphics/SVG/1.1/DTD/svg11.dtd">
<svg version="1.1" id="Layer_1" xmlns="http://www.w3.org/2000/svg" xmlns:xlink="http://www.w3.org/1999/xlink" x="0px" y="0px"
	 width="600px" height="600px" viewBox="0 0 600 600" style="enable-background:new 0 0 600 600;" xml:space="preserve">
<style type="text/css">
<![CDATA[
	.st0{fill-rule:evenodd;clip-rule:evenodd;fill:none;}
	.st1{fill-rule:evenodd;clip-rule:evenodd;}
]]>
</style>
<g>
	<path class="st0" d="M11.281,596.571c0-193.711,0-387.421,0-581.132c192.747,0,385.494,0,578.24,0c0,193.71,0,387.421,0,581.132
		C396.775,596.571,204.028,596.571,11.281,596.571z M106.575,231.282c0.339,0.241,0.678,0.482,1.017,0.723
		c-0.298,0.97-0.542,1.962-0.906,2.907c-1.333,3.463,0.055,6.376,3.619,7.472c2.915,0.896,5.818,1.839,8.76,2.638
		c5.114,1.389,10.225,2.811,15.392,3.979c4.822,1.091,9.75,1.718,14.562,2.848c2.728,0.641,5.488,1.569,7.93,2.917
		c6.565,3.623,14.226,5.229,18.737,12.538c2.635,4.269,7.667,6.995,11.323,10.708c10.363,10.525,20.613,21.163,30.83,31.831
		c8.024,8.38,15.925,16.879,23.895,25.312c2.673,2.828,2.538,5.515-0.529,8.109c-3.082,2.607-6.208,5.164-9.303,7.756
		c-5.984,5.014-12.051,9.934-17.919,15.079c-9.226,8.091-18.702,15.949-27.381,24.599c-17.791,17.732-35.042,36.005-52.669,53.904
		c-15.299,15.533-30.763,30.905-46.26,46.241c-3.803,3.763-7.993,7.14-12.051,10.641c-3.249,2.802-6.348,5.854-9.901,8.208
		c-6.799,4.507-12.035,10.094-13.58,18.282c-1.046,5.544-1.499,11.692,2.518,16.017c7.949,8.559,16.595,16.475,25.039,24.567
		c6.43,6.161,13.807,6.605,21.674,3.136c2.021-0.892,4.536-1.426,5.881-2.954c6.203-7.046,12.163-14.313,18.033-21.645
		c4.627-5.778,8.743-11.98,13.544-17.603c5.803-6.793,12.071-13.192,18.173-19.728c7.359-7.88,14.748-15.731,22.138-23.583
		c8.043-8.546,16.086-17.092,24.163-25.606c9.567-10.087,19.185-20.127,28.741-30.226c1.213-1.281,2.195-2.784,3.274-4.193
		c4.453-5.817,8.875-11.659,13.36-17.45c3.623-4.679,7.382-9.253,10.969-13.958c4.2-5.509,8.699-10.854,12.276-16.75
		c2.843-4.687,8.047-7.766,9.089-13.629c0.182-1.019,0.828-1.955,1.26-2.93c0.52,0.393,1.037,0.785,1.557,1.178
		c-0.186,1.347,0.032,2.952-0.633,3.99c-1.751,2.728-0.668,4.74,1.08,6.751c4.922,5.658,9.825,11.333,14.791,16.95
		c11.322,12.807,22.678,25.583,34.02,38.371c13.225,14.912,26.408,29.861,39.697,44.715c5.98,6.686,12.18,13.174,18.268,19.763
		c5.68,6.147,11.344,12.309,17.014,18.464c0.162,0.178,0.332,0.348,0.488,0.531c6.717,7.87,13.369,15.8,20.176,23.593
		c3.928,4.498,8.061,8.821,12.193,13.135c2.957,3.084,5.807,6.36,9.166,8.953c7.4,5.713,16.119,8.806,25.18,10.406
		c6.518,1.152,12.875-0.869,18.889-3.6c2.572-1.168,5.145-2.338,7.729-3.479c5.813-2.563,10.596-6.646,12.102-12.7
		c0.924-3.723,1.822-7.347,3.164-10.974c2.146-5.813,1.773-11.687,0.291-17.867c-2.256-9.412-6.523-17.694-13.117-24.329
		C451.42,442.065,398.285,389.07,345.219,336.005c-6.105-6.106-12.189-12.239-18.332-18.31c-3.597-3.554-9.554-3.938-12.365-0.863
		c-7.013,7.676-13.943,15.428-21.025,23.04c-4.181,4.494-8.538,8.827-12.941,13.104c-0.684,0.663-2.04,0.635-3.085,0.925
		c0.241-1.006,0.17-2.289,0.776-2.974c3.25-3.668,6.747-7.119,10.009-10.778c2.952-3.31,5.712-6.791,8.558-10.197
		c-1.058-0.396-1.524-0.258-1.813,0.049c-4.832,5.146-9.874,10.117-14.391,15.528c-4.724,5.658-6.665,6.661-10.677,4.415
		c-2.079,1.23-3.912,2.316-6.603,3.91c-0.31-2.778-0.958-4.754-0.608-6.533c0.358-1.819,1.388-3.727,2.652-5.112
		c7.044-7.726,14.054-15.499,21.451-22.88c7.985-7.971,16.529-15.38,24.563-23.305c8.548-8.431,16.82-17.142,25.142-25.799
		c9.884-10.282,19.653-20.673,29.542-30.948c9.016-9.365,18.164-18.603,27.188-27.958c11.504-11.924,22.994-23.862,34.387-35.892
		c4.945-5.222,9.721-10.613,14.4-16.074c2.262-2.639,4.672-2.718,6.641,0.302c0.752,1.155,1.289,2.451,1.924,3.682
		c-0.512-0.409-1.021-0.819-1.533-1.228c-6.74,7.431-13.262,15.078-20.277,22.237c-9.715,9.914-20.098,19.185-29.6,29.292
		c-4.172,4.438-10.732,6.792-12.41,13.518c-0.049,0.198-0.332,0.337-0.506,0.505c-8.844,8.62-17.715,17.212-26.52,25.872
		c-6.146,6.045-12.291,12.1-18.283,18.298c-10.284,10.636-20.486,21.354-30.633,32.121c-2.018,2.14-3.973,4.479-5.332,7.056
		c-1.025,1.946-0.674,4.595-1.611,6.616c-1.512,3.261-3.581,6.263-5.414,9.374c0.272,0.21,0.545,0.421,0.818,0.633
		c6.203-6.904,12.108-14.108,18.695-20.626c6.457-6.388,11.739-14.07,19.667-18.937c-5.966,8.849-14.896,15.242-20.563,25.165
		c1.986,0,3.094-0.165,4.135,0.028c4.479,0.831,7.636-1.104,10.6-4.289c9.326-10.021,18.898-19.813,28.254-29.807
		c12.287-13.124,24.43-26.38,36.689-39.531c8.008-8.591,16.053-17.151,24.189-25.621c9.17-9.545,18.51-18.927,27.67-28.481
		c3.205-3.344,6.053-7.029,9.162-10.467c0.674-0.743,1.75-1.492,2.691-1.561c5.467-0.4,10.969-1.014,16.42-0.751
		c5.773,0.277,9.588,4.845,13.686,8.205c2.836,2.325,5.266,4.211,9.098,3.646c3.975-0.586,7.207,0.844,9.719,4.029
		c0.961,1.221,2.215,2.208,3.293,3.343c1.975,2.08,4.301,2.756,6.742,1.148c3.248-2.14,6.615-4.242,9.393-6.918
		c8.584-8.266,16.93-16.778,25.32-25.243c1.525-1.539,1.742-3.204,0.008-4.963c-2.248-2.275-4.334-4.708-6.463-7.098
		c-2.592-2.911-5.584-4.72-9.713-4.12c-1.65,0.24-3.363,0.076-5.047,0.031c-4.848-0.128-10.533-5.036-10.537-9.841
		c-0.006-5.188,0.855-10.376,1.287-15.568c0.299-3.572,0.957-7.194,0.623-10.714c-0.281-2.938-1.643-5.85-4.383-7.274
		c-1.418,0.984-2.463,1.71-3.508,2.436c0.434-1.638,2.025-3.008,1.805-3.956c-1.115-4.785-0.578-10.257-5.6-13.59
		c-2.553-1.693-4.557-4.188-6.961-6.129c-2.566-2.07-5.113-4.313-8.02-5.783c-8.254-4.17-16.924-7.558-24.973-12.071
		c-6.537-3.665-13.486-5.167-20.629-6.381c-2.795-0.475-6.043,0.237-8.426-0.934c-7.541-3.711-15.031-0.67-22.369-0.083
		c-5.818,0.465-11.637,3.008-17.057,5.494c-2.904,1.332-6.623,4.236-7.035,6.888c-0.668,4.311-3.695,5.971-5.811,8.738
		c-0.811,1.061-1.461,3.008-1.039,4.115c1.689,4.427,8.002,7.268,12.785,6.526c2.695-0.418,5.506-0.365,8.24-0.185
		c3.291,0.218,6.578,0.685,9.832,1.243c6.506,1.116,13.152,1.824,19.428,3.73c5.295,1.608,10.309,4.386,15.152,7.158
		c7.076,4.049,7.57,11.521,2.361,16.247c-3.93,3.564-6.902,8.169-10.402,12.223c-4.064,4.707-5.313,11.159-10.564,15.304
		c-5.389,4.252-5.014,5.495-0.396,10.577c0.139,0.152,0.129,0.437,0.17,0.593c-7.662,8.025-15.301,16.01-22.924,24.012
		c-18.037,18.93-36.922,37.026-53.793,57.105c-9.801,11.665-21.215,21.973-31.881,32.914c-7.723,7.921-15.422,15.862-23.09,23.833
		c-1.529,1.589-3.454,2.616-4.898,0.713c-4.52-5.956-11.685-9.662-14.439-17.124c-0.422-1.144-1.665-1.972-2.482-2.984
		c-3.762-4.66-10.286-6.816-12.078-13.292c-0.064-0.231-0.851-0.198-1.223-0.42c-2.804-1.678-6.023-2.944-8.302-5.168
		c-7.568-7.387-14.931-14.999-22.1-22.776c-3.52-3.818-6.271-8.336-9.675-12.275c-3.368-3.895-4.409-10.438-11.379-10.436
		c-0.208,0-0.434-0.187-0.623-0.325c-4.042-2.951-5.513-10.02-2.992-14.351c1.5-2.577,1.619-10.34-0.377-11.979
		c-5.613-4.61-6.647-11.187-8.233-17.574c-1.572-6.33-1.59-13.209-6.653-18.29c-0.431-0.432-0.478-1.309-0.579-1.998
		c-0.64-4.363,0.128-9.121-3.778-12.551c-0.497-0.437-0.326-1.576-0.598-2.342c-0.391-1.106-0.787-2.242-1.393-3.235
		c-1.063-1.743-2.697-3.244-3.349-5.106c-1.117-3.19-1.742-6.564-2.419-9.893c-0.479-2.353-1.51-5.016-0.849-7.078
		c0.946-2.953,0.477-5.114-1.348-7.187c-1.74-1.976-3.539-3.954-5.58-5.599c-2.278-1.836-3.3-3.983-3.104-6.861
		c0.288-4.23-1.569-7.213-5.211-9.402c-3.93-2.36-8.185-4.527-11.363-7.711c-4.844-4.853-9.874-8.711-16.784-10.072
		c-5.663-1.116-11.06-3.195-17.025-3.187c-11.583,0.014-23.226-0.424-34.394,3.108c-5.641,1.784-10.991,4.604-16.274,7.34
		c-2.328,1.206-2.817,3.731-0.677,5.684c2.503,2.283,4.713,5.72,9.119,3.548c0.703-0.347,1.913,0.019,2.772,0.355
		c9.162,3.59,18.275,7.307,27.455,10.851c5.996,2.315,10.029,9.638,8.155,15.924c-1.361,4.565-2.186,8.901-0.176,13.523
		c0.521,1.2,0.006,3.056-0.484,4.452c-2.07,5.896-4.359,11.713-6.47,17.594c-1.407,3.919-8.271,8.521-12.707,6.026
		c-2.095-1.179-4.367-2.042-7.606-3.53c1.08,12.068,2.09,23.353,3.101,34.637c-2.498-4.409-3.165-9.51-7.185-12.136
		c0.685-0.951,1.895-1.877,1.875-2.777c-0.031-1.391-0.904-2.762-1.179-3.496c1.04-1.744,2.579-3.137,2.538-4.481
		c-0.123-4.15-0.807-8.288-1.395-12.413c-0.077-0.533-0.797-1.106-1.355-1.415c-2.903-1.607-5.784-3.281-8.796-4.664
		c-8.428-3.867-16.874-7.703-25.413-11.315c-1.972-0.834-4.611-1.506-6.471-0.871c-3.143,1.073-1.176,4.032-1.07,6.22
		c0.033,0.682,0.375,1.387,0.708,2.011c5.027,9.438,9.737,19.067,15.214,28.238c5.748,9.626,14.05,17.204,21.975,25.028
		c5.57,5.5,5.711,7.81,2.234,15.021c-3.73,7.738-7.088,15.657-10.612,23.494c-1.067,2.375-0.542,4.609,1.569,5.808
		c3.572,2.029,7.449,3.515,11.117,5.386c1.548,0.79,3.146,1.755,4.279,3.032c2.456,2.77,5.892,2.953,8.262,0.175
		C105.135,232.568,105.885,231.95,106.575,231.282z"/>
	<path class="st1" d="M106.575,231.282c-0.69,0.668-1.44,1.287-2.062,2.014c-2.37,2.778-5.806,2.595-8.262-0.175
		c-1.133-1.277-2.73-2.242-4.279-3.032c-3.668-1.872-7.545-3.357-11.117-5.386c-2.111-1.199-2.636-3.433-1.569-5.808
		c3.524-7.837,6.881-15.756,10.612-23.494c3.477-7.212,3.335-9.522-2.234-15.021c-7.925-7.824-16.227-15.402-21.975-25.028
		c-5.477-9.171-10.187-18.8-15.214-28.238c-0.333-0.624-0.675-1.329-0.708-2.011c-0.106-2.188-2.073-5.146,1.07-6.22
		c1.86-0.635,4.499,0.037,6.471,0.871c8.539,3.612,16.985,7.448,25.413,11.315c3.012,1.382,5.893,3.056,8.796,4.664
		c0.559,0.309,1.279,0.882,1.355,1.415c0.588,4.125,1.272,8.263,1.395,12.413c0.041,1.345-1.499,2.737-2.538,4.481
		c0.274,0.734,1.147,2.105,1.179,3.496c0.02,0.899-1.19,1.826-1.875,2.777c4.02,2.626,4.687,7.728,7.185,12.136
		c-1.011-11.284-2.021-22.568-3.101-34.637c3.24,1.488,5.512,2.352,7.606,3.53c4.436,2.496,11.3-2.107,12.707-6.026
		c2.111-5.881,4.4-11.699,6.47-17.594c0.49-1.396,1.005-3.252,0.484-4.452c-2.009-4.623-1.185-8.958,0.176-13.523
		c1.874-6.287-2.159-13.609-8.155-15.924c-9.18-3.544-18.293-7.261-27.455-10.851c-0.859-0.336-2.069-0.703-2.772-0.355
		c-4.405,2.172-6.616-1.265-9.119-3.548c-2.14-1.953-1.651-4.479,0.677-5.684c5.283-2.736,10.634-5.556,16.274-7.34
		c11.168-3.533,22.811-3.094,34.394-3.108c5.965-0.008,11.362,2.071,17.025,3.187c6.91,1.361,11.94,5.22,16.784,10.072
		c3.179,3.185,7.434,5.351,11.363,7.711c3.642,2.188,5.499,5.171,5.211,9.402c-0.196,2.877,0.826,5.025,3.104,6.861
		c2.041,1.645,3.839,3.623,5.58,5.599c1.825,2.073,2.293,4.233,1.348,7.187c-0.661,2.062,0.37,4.725,0.849,7.078
		c0.678,3.328,1.302,6.702,2.419,9.893c0.652,1.862,2.287,3.363,3.349,5.106c0.606,0.994,1.002,2.129,1.393,3.235
		c0.272,0.766,0.101,1.905,0.598,2.342c3.906,3.43,3.138,8.188,3.778,12.551c0.101,0.689,0.148,1.566,0.579,1.998
		c5.063,5.081,5.082,11.96,6.653,18.29c1.586,6.387,2.621,12.964,8.233,17.574c1.996,1.64,1.877,9.403,0.377,11.979
		c-2.521,4.331-1.05,11.399,2.992,14.351c0.189,0.138,0.415,0.325,0.623,0.325c6.97-0.001,8.011,6.541,11.379,10.436
		c3.405,3.938,6.155,8.457,9.675,12.275c7.168,7.777,14.531,15.389,22.1,22.776c2.279,2.224,5.498,3.491,8.302,5.168
		c0.373,0.222,1.159,0.189,1.223,0.42c1.792,6.476,8.315,8.632,12.078,13.292c0.817,1.012,2.061,1.84,2.482,2.984
		c2.755,7.461,9.92,11.167,14.439,17.124c1.444,1.903,3.369,0.876,4.898-0.713c7.668-7.972,15.367-15.913,23.09-23.833
		c10.666-10.941,22.08-21.249,31.881-32.914c16.871-20.079,35.756-38.175,53.793-57.105c7.623-8.001,15.262-15.987,22.924-24.012
		c-0.041-0.156-0.031-0.441-0.17-0.593c-4.617-5.082-4.992-6.325,0.396-10.577c5.252-4.146,6.5-10.597,10.564-15.304
		c3.5-4.054,6.473-8.659,10.402-12.223c5.209-4.726,4.715-12.197-2.361-16.247c-4.844-2.772-9.857-5.55-15.152-7.158
		c-6.275-1.906-12.922-2.614-19.428-3.73c-3.254-0.559-6.541-1.025-9.832-1.243c-2.734-0.181-5.545-0.234-8.24,0.185
		c-4.783,0.742-11.096-2.099-12.785-6.526c-0.422-1.106,0.229-3.054,1.039-4.115c2.115-2.767,5.143-4.427,5.811-8.738
		c0.412-2.651,4.131-5.556,7.035-6.888c5.42-2.486,11.238-5.029,17.057-5.494c7.338-0.587,14.828-3.628,22.369,0.083
		c2.383,1.171,5.631,0.459,8.426,0.934c7.143,1.214,14.092,2.717,20.629,6.381c8.049,4.513,16.719,7.901,24.973,12.071
		c2.906,1.469,5.453,3.712,8.02,5.783c2.404,1.941,4.408,4.436,6.961,6.129c5.021,3.333,4.484,8.805,5.6,13.59
		c0.221,0.948-1.371,2.318-1.805,3.956c1.045-0.726,2.09-1.452,3.508-2.436c2.74,1.425,4.102,4.337,4.383,7.274
		c0.334,3.521-0.324,7.143-0.623,10.714c-0.432,5.192-1.293,10.38-1.287,15.568c0.004,4.805,5.689,9.713,10.537,9.841
		c1.684,0.044,3.396,0.208,5.047-0.031c4.129-0.6,7.121,1.209,9.713,4.12c2.129,2.39,4.215,4.823,6.463,7.098
		c1.734,1.759,1.518,3.424-0.008,4.963c-8.391,8.465-16.736,16.977-25.32,25.243c-2.777,2.676-6.145,4.779-9.393,6.918
		c-2.441,1.608-4.768,0.931-6.742-1.148c-1.078-1.136-2.332-2.123-3.293-3.343c-2.512-3.185-5.744-4.615-9.719-4.029
		c-3.832,0.565-6.262-1.321-9.098-3.646c-4.098-3.36-7.912-7.928-13.686-8.205c-5.451-0.263-10.953,0.351-16.42,0.751
		c-0.941,0.069-2.018,0.818-2.691,1.561c-3.109,3.438-5.957,7.123-9.162,10.467c-9.16,9.555-18.5,18.936-27.67,28.481
		c-8.137,8.47-16.182,17.03-24.189,25.621c-12.26,13.15-24.402,26.407-36.689,39.531c-9.355,9.995-18.928,19.787-28.254,29.807
		c-2.964,3.186-6.12,5.12-10.6,4.289c-1.041-0.193-2.148-0.028-4.135-0.028c5.667-9.923,14.598-16.316,20.563-25.165
		c-7.928,4.866-13.21,12.549-19.667,18.937c-6.587,6.518-12.492,13.722-18.695,20.626c-0.273-0.212-0.546-0.423-0.818-0.633
		c1.833-3.111,3.902-6.113,5.414-9.374c0.938-2.021,0.586-4.67,1.611-6.616c1.359-2.577,3.314-4.916,5.332-7.056
		c10.146-10.768,20.349-21.485,30.633-32.121c5.992-6.198,12.137-12.252,18.283-18.298c8.805-8.659,17.676-17.251,26.52-25.872
		c0.174-0.168,0.457-0.307,0.506-0.505c1.678-6.726,8.238-9.079,12.41-13.518c9.502-10.107,19.885-19.379,29.6-29.292
		c7.016-7.16,13.537-14.807,20.277-22.237c0.512,0.409,1.021,0.819,1.533,1.228c-0.635-1.231-1.172-2.527-1.924-3.682
		c-1.969-3.02-4.379-2.941-6.641-0.302c-4.68,5.461-9.455,10.852-14.4,16.074c-11.393,12.03-22.883,23.967-34.387,35.892
		c-9.023,9.355-18.172,18.593-27.188,27.958c-9.889,10.275-19.658,20.667-29.542,30.948c-8.321,8.657-16.594,17.368-25.142,25.799
		c-8.033,7.925-16.577,15.334-24.563,23.305c-7.397,7.381-14.407,15.154-21.451,22.88c-1.265,1.386-2.294,3.293-2.652,5.112
		c-0.35,1.779,0.299,3.755,0.608,6.533c2.69-1.594,4.524-2.68,6.603-3.91c4.013,2.246,5.953,1.243,10.677-4.415
		c4.517-5.411,9.559-10.383,14.391-15.528c0.288-0.307,0.755-0.444,1.813-0.049c-2.846,3.406-5.605,6.888-8.558,10.197
		c-3.263,3.659-6.759,7.11-10.009,10.778c-0.606,0.685-0.535,1.968-0.776,2.974c1.045-0.29,2.401-0.262,3.085-0.925
		c4.403-4.276,8.761-8.609,12.941-13.104c7.082-7.612,14.013-15.364,21.025-23.04c2.812-3.075,8.769-2.69,12.365,0.863
		c6.143,6.07,12.227,12.203,18.332,18.31c53.066,53.065,106.201,106.061,159.107,159.284c6.594,6.635,10.861,14.917,13.117,24.329
		c1.482,6.181,1.855,12.055-0.291,17.867c-1.342,3.627-2.24,7.251-3.164,10.974c-1.506,6.055-6.289,10.138-12.102,12.7
		c-2.584,1.141-5.156,2.311-7.729,3.479c-6.014,2.73-12.371,4.752-18.889,3.6c-9.061-1.601-17.779-4.693-25.18-10.406
		c-3.359-2.593-6.209-5.869-9.166-8.953c-4.133-4.313-8.266-8.637-12.193-13.135c-6.807-7.793-13.459-15.723-20.176-23.593
		c-0.156-0.184-0.326-0.354-0.488-0.531c-5.67-6.155-11.334-12.316-17.014-18.464c-6.088-6.589-12.287-13.077-18.268-19.763
		c-13.289-14.854-26.473-29.803-39.697-44.715c-11.342-12.788-22.697-25.564-34.02-38.371c-4.966-5.617-9.869-11.292-14.791-16.95
		c-1.748-2.011-2.831-4.023-1.08-6.751c0.665-1.038,0.447-2.644,0.633-3.99c-0.52-0.393-1.037-0.785-1.557-1.178
		c-0.432,0.975-1.078,1.911-1.26,2.93c-1.042,5.863-6.247,8.942-9.089,13.629c-3.578,5.896-8.077,11.241-12.276,16.75
		c-3.587,4.705-7.347,9.279-10.969,13.958c-4.486,5.791-8.907,11.633-13.36,17.45c-1.079,1.409-2.061,2.912-3.274,4.193
		c-9.557,10.099-19.174,20.139-28.741,30.226c-8.077,8.515-16.12,17.061-24.163,25.606c-7.391,7.852-14.779,15.703-22.138,23.583
		c-6.103,6.535-12.37,12.935-18.173,19.728c-4.802,5.622-8.917,11.824-13.544,17.603c-5.87,7.331-11.83,14.599-18.033,21.645
		c-1.345,1.528-3.86,2.063-5.881,2.954c-7.868,3.47-15.245,3.025-21.674-3.136c-8.443-8.093-17.09-16.009-25.039-24.567
		c-4.016-4.324-3.563-10.473-2.518-16.017c1.545-8.188,6.78-13.775,13.58-18.282c3.554-2.354,6.653-5.406,9.901-8.208
		c4.058-3.501,8.248-6.878,12.051-10.641c15.497-15.336,30.961-30.708,46.26-46.241c17.627-17.899,34.878-36.172,52.669-53.904
		c8.679-8.649,18.156-16.508,27.381-24.599c5.868-5.146,11.935-10.065,17.919-15.079c3.095-2.592,6.221-5.148,9.303-7.756
		c3.067-2.595,3.203-5.281,0.529-8.109c-7.97-8.433-15.871-16.932-23.895-25.312c-10.216-10.668-20.467-21.306-30.83-31.831
		c-3.656-3.713-8.688-6.439-11.323-10.708c-4.512-7.31-12.172-8.915-18.737-12.538c-2.442-1.348-5.203-2.275-7.93-2.917
		c-4.811-1.13-9.739-1.757-14.562-2.848c-5.167-1.168-10.277-2.589-15.392-3.979c-2.942-0.799-5.845-1.742-8.76-2.638
		c-3.564-1.096-4.952-4.008-3.619-7.472c0.364-0.945,0.607-1.937,0.906-2.907C107.253,231.764,106.915,231.522,106.575,231.282z
		 M300.954,363.238c0.669,0.967,1.267,1.996,2.022,2.89c1.408,1.667,2.908,3.258,4.371,4.881c0.313-0.309,0.625-0.618,0.938-0.928
		c-1.143-3.618-4.014-5.467-7.438-6.75c-0.063-1.74,0.563-4.042-0.314-5.119c-2.877-3.529-6.3-6.613-9.662-10.02
		C288.692,352.323,294.544,360.408,300.954,363.238z M337.749,372.68c-0.829,1.584-1.657,3.169-2.685,5.134
		c2.652,2.601,3.357-1.315,5.188-1.989c-0.969-1.206-1.746-2.174-2.523-3.141c0.535-0.932,1.07-1.864,1.25-2.177
		c-2.458-6.155-8.67-8.949-10.299-15.355c-0.311,0.117-0.623,0.235-0.936,0.354c-0.536,1.394-1.072,2.788-1.422,3.694
		c2.418,2.506,4.504,4.67,6.877,7.131c-1.362,1.645-3.24,3.354-4.336,5.47c-0.555,1.069,0.304,2.871,0.521,4.341
		c1.039-0.161,2.178-0.105,3.094-0.529C334.311,374.763,336.02,373.651,337.749,372.68z M476.732,142.667
		c-0.268,1.309-0.535,2.618-0.994,4.864c0.871,0,2.375,0.427,3.309-0.121c0.914-0.537,1.246-2.066,1.834-3.16
		c-1.416-0.493-2.832-0.986-4.246-1.479c-0.557-0.868-1.111-1.736-1.979-3.09c1.527,0.103,3.135,0.71,3.814,0.163
		c2.086-1.681,3.932-3.711,5.656-5.782c1.605-1.926,2.938-4.078,4.533-6.333c-0.438-0.767-1.016-1.782-1.746-3.063
		c1.604,0.399,2.74,0.682,3.836,0.955c-0.344-1.696-0.598-2.944-0.852-4.19c1.789,1.479,3.1,2.565,4.293,3.551
		c0.32,1.652,0.676,3.484,1.066,5.493c1.678-1.391,2.814-2.334,3.938-3.265c-0.965-1.03-1.693-1.808-2.889-3.085
		c1.723-0.129,2.641-0.207,3.561-0.266c4.557-0.292,8.631-1.301,9.852-6.582c0.107-0.462,0.186-0.932,0.322-1.384
		c1.168-3.864,2.346-7.725,3.523-11.595c-1.863-0.545-2.375-0.154-2.83,2.676c-1.023,6.382-2.494,8.264-7.773,9.188
		c0.873-1.996,1.59-3.637,2.371-5.42c-1.678-2.461-1.596-6.974-0.033-8.902c-0.977-2.155-1.842-4.061-2.773-6.113
		c-0.049,0.028-0.801,0.459-1.811,1.04c0-1.215,0-2.139,0-3.063c-0.287,0.008-0.574,0.015-0.861,0.023c0,2.192,0,4.384,0,6.576
		c-0.291-0.209-0.582-0.419-0.873-0.629c-3.438,3.505-6.877,7.01-10.393,10.592c-1.221-1.871,1.789-5.459-2.828-6.264
		c-1.289,3.265-2.574,6.518-3.709,9.387c-0.967-0.563-1.742-1.015-2.521-1.467c-0.053,3.102-3.596,2.636-4.553,4.218
		c-2.432,4.022-7.32,7.229-5.4,12.433c-1.703,0.445-4.525,0.636-4.645,1.308c-0.508,2.858-0.236,5.859-0.189,8.807
		c0.006,0.279,0.373,0.683,0.666,0.805C469.049,141.015,472.453,143.409,476.732,142.667z M361.926,406.015
		c1.273,0.575,2.549,1.149,3.799,1.714c-0.826,2.271-1.545,4.244-2.342,6.436c2.168,1.179,4.557,1.941,6.168,3.505
		c1.662,1.607,2.561,4.002,3.814,6.038c0.184,0.296,0.533,0.483,0.736,0.771c2.471,3.499,4.928,7.008,7.391,10.514
		c-0.264,0.203-0.527,0.406-0.791,0.609c-1.91-0.844-3.818-1.687-6.549-2.893c0.475,2.062,0.391,3.513,1.07,4.319
		c2.568,3.039,5.367,5.884,8.111,8.773c5.695,6,11.398,11.994,17.123,17.967c3.021,3.152,5.918,6.455,9.189,9.327
		c4.072,3.578,10.014,4.686,12.998,9.865c0.59,1.025,2.242,1.789,3.516,2.003c3.318,0.557,4.656,2.783,2.697,5.565
		c-1.693,2.404-0.773,3.43,1.463,4.188c1.021,0.347,2.148,0.437,3.115,0.885c2.549,1.182,3.619,0.037,3.979-2.353
		c4.09,0.716,11.371-2.283,13.412-5.61c0.365-0.594,0.553-1.646,0.273-2.219c-0.881-1.814-1.803-3.69-3.104-5.201
		c-3.307-3.845-6.396-8.07-10.383-11.069c-3.729-2.802-6.969-7.111-12.553-6.817c-0.533,0.028-1.203-0.898-1.664-1.494
		c-1.484-1.917-2.539-4.392-4.416-5.728c-3.75-2.667-3.635-7.641-7.408-10.502c-3.766-2.856-6.033-7.604-9.512-10.947
		c-4.84-4.653-10.564-8.228-14.861-13.67c-4.061-5.142-9.324-9.333-14.08-13.924c-0.908-0.877-2.002-1.574-2.85-2.5
		c-1.58-1.731-3.043-3.57-4.555-5.364c-0.377,0.303-0.754,0.604-1.133,0.906c1.902,2.639,3.322,5.992,5.854,7.696
		c2.133,1.438,2.254,2.427,1.361,4.654c-1.969-1.451-3.725-3.085-5.088-4.997c-1.549-2.173-2.982-2.303-4.75-0.455
		c-1.557,2.168-5.191,3.563-2.604,7.623c1.221-2.084,2.385-3.894,3.322-5.814C362.867,407.431,362.199,406.627,361.926,406.015z
		 M120.797,224.744c1.832,1.33,3.058,2.687,4.576,3.246c9.391,3.457,18.914,6.558,28.255,10.14
		c5.344,2.049,10.446,4.742,15.617,7.228c2.223,1.069,4.251,2.897,6.553,3.286c1.038,0.176,2.525-2.329,3.817-3.611
		c0.167-0.165,0.364-0.356,0.579-0.409c3.305-0.817,4.812-3.354,6.654-5.988c3.182-4.549,7.065-8.616,10.742-12.809
		c2.092-2.385,4.201-4.803,6.592-6.87c2.629-2.271,5.479-4.341,8.45-6.141c1.93-1.17,3.021-2.223,1.882-4.481
		c-4.402-8.728-9.134-17.31-13.084-26.237c-3.179-7.183-5.313-14.822-8.085-22.194c-2.234-5.943-4.706-11.797-7.125-17.669
		c-0.556-1.347-1.489-2.547-1.967-3.914c-1.788-5.111-3.404-10.281-5.209-15.385c-0.46-1.3-2.254-3.169-1.95-3.533
		c2.613-3.121-0.417-3.766-1.896-5.247c-0.688-0.689-0.868-1.876-1.306-2.826c-1.084-2.346-1.609-5.401-3.417-6.853
		c-2.559-2.054-2.675-4.552-2.167-6.785c1.326-5.821-2.05-10.048-4.184-14.743c0.524,3.466,1.047,6.931,1.588,10.51
		c-2.92,0.515-5.903,1.042-9.109,1.607c1.059-1.706,1.943-3.13,2.828-4.554c-0.351-0.396-0.701-0.792-1.051-1.188
		c-2.276,1.163-4.553,2.325-7.424,3.791c-1.665-0.71-4.323-1.844-7.675-3.274c0.926,2.833,1.651,5.05,2.333,7.137
		c1.503,0.671,3.758,0.974,4.387,2.148c0.676,1.262-0.173,3.341-0.302,4.55c1.279,0.898,2.496,1.428,3.164,2.355
		c0.339,0.47-0.371,2.415-0.508,2.404c-3.295-0.254-2.658,2.536-3.404,4.414c1.331-0.15,2.408-0.791,3.573-1.112
		c1.194-0.33,2.649-0.797,3.675-0.396c1.543,0.603,2.699,1.915,1.694,3.943c-1.097,2.216-2.444,4.387-3.064,6.74
		c-0.917,3.488-3.037,4.469-6.29,4.175c-0.761-0.069-1.556,0.241-2.962,0.486c2.575,1.005,4.367,1.705,6.143,2.398
		c-1.947,0.909-3.828,1.564-5.459,2.608c-1.83,1.17-3.443,2.684-5.136,4.065c-2.31,1.884-5.145,3.417-6.757,5.782
		c-1.565,2.295-3.344,2.918-5.735,3.443c-3.293,0.724-7.327,0.657-8.891,4.409c-1.278,3.065-5.457,3.947-5.033,8.656
		c0.221,2.455-3.593,5.163-5.297,7.933c-1.393,2.265-4.403,4.265-1.789,7.65c0.505,0.655,0.397,2.107,0.079,3.019
		c-1.349,3.864-3.797,7.246-3.829,11.69c-0.029,4.087-1.365,8.158-1.487,12.255c-0.104,3.493-0.612,6.921,1.803,10.489
		c2,2.957,1.873,7.349,2.701,11.103c0.689,3.125,3.119,4.49,5.827,5.254c0.813,0.229,2.355-0.438,2.866-1.177
		c1.125-1.626,1.722-3.605,2.69-5.354c0.938-1.692,2.07-3.274,3.118-4.905c0.378,0.247,0.756,0.494,1.135,0.741
		c-0.672,1.268-1.344,2.535-1.994,3.759c0.979,0.823,1.757,1.475,2.66,2.233C122.35,223.442,121.699,223.988,120.797,224.744z
		 M225.273,261.58c-1.665-0.407-2.536-0.493-3.29-0.837c-0.911-0.415-2.151-0.881-2.446-1.638c-0.259-0.665,0.433-2.387,0.986-2.527
		c0.963-0.243,2.227,0.209,3.198,0.699c0.507,0.255,0.503,1.426,1.013,1.802c0.776,0.572,1.796,0.813,2.712,1.193
		c-0.036-1.035,0.345-2.401-0.173-3.053c-4.359-5.485-8.803-10.91-13.387-16.208c-2.686-3.105-4.683-2.973-7.81-0.081
		c-0.868,0.802-1.807,1.708-2.881,2.072c-4.111,1.398-4.696,2.353-2.102,5.746c3.19,4.174,6.863,7.977,10.265,11.993
		c7.72,9.113,15.419,18.243,23.094,27.392c7.094,8.457,14.146,16.949,21.213,25.428c2.994,3.59,5.888,7.271,9.043,10.711
		c0.688,0.752,2.596,1.225,3.395,0.799c0.786-0.419,1.242-2.166,1.168-3.286c-0.07-1.064-0.863-2.193-1.598-3.079
		c-5.05-6.093-10.201-12.101-15.253-18.191c-5.166-6.228-10.245-12.526-15.378-18.78c-3.461-4.216-6.984-8.383-10.416-12.623
		c-1.344-1.66-2.514-3.459-3.868-5.339C223.322,263.279,223.906,262.771,225.273,261.58z M457.973,521.967
		c-0.443,7.4,6.246,16.438,15.279,15.763c7.932-0.593,15.59-6.309,15.672-14.774c0.082-8.4-6.16-16.025-14.797-15.81
		S458.229,512.852,457.973,521.967z M190.909,247.022c-0.488,0.266-0.975,0.53-1.462,0.795c1.476,3.21,2.418,6.843,4.549,9.535
		c3.383,4.276,7.633,7.854,11.382,11.853c5.715,6.096,11.348,12.269,16.955,18.465c5.885,6.503,11.729,13.044,17.535,19.619
		c6.113,6.922,13.707,12.563,18.138,20.952c0.375,0.709,1.1,1.589,1.779,1.706c1.278,0.219,2.706,0.13,3.921-0.278
		c0.275-0.093,0.175-2.098-0.183-3.062c-0.356-0.964-1.19-1.785-1.921-2.571c-13.645-14.657-27.366-29.244-40.942-43.966
		c-8.416-9.126-16.617-18.451-24.916-27.686C194.135,250.593,192.521,248.81,190.909,247.022z M485.072,84.783
		c0.885,3.572,0.828,7.637,2.793,10.068c1.994,2.467,0.705,3.66,0.201,5.535c-0.115,0.432,0.643,1.186,1.121,1.671
		c0.695,0.706,1.502,1.305,2.568,2.21c0.598-0.567,1.295-1.229,1.457-1.382c-0.934-1.441-1.939-2.28-1.906-3.075
		c0.145-3.487,1.398-6.425,5.348-7.536c-0.438-3.291-0.848-6.363-1.256-9.434c-0.309,0.057-0.617,0.114-0.926,0.17
		c-0.4,0.849-0.801,1.697-1.201,2.546c-0.256-0.032-0.512-0.065-0.768-0.098c-0.287-1.217-0.576-2.433-0.957-4.044
		c-1.262,0.962-2.383,1.819-3.957,3.022c-0.686-3.289-2.104-5.683-5.115-6.742c-0.338-0.119-0.381-1.034-0.727-1.176
		c-1.936-0.793-3.895-1.557-5.9-2.135c-1.016-0.292-2.162-0.1-3.227-0.261c-1.008-0.152-1.99-0.479-2.029-0.489
		c1.592,2.313,3.57,4.929,5.264,7.719C477.838,84.623,480.385,85.898,485.072,84.783z M447.945,515.139
		c5.838-8.148,13.543-14.68,23.713-19.835c-5.807-2.031-10.254-1.227-14.508,0.72c-2.861,1.309-5.502,3.102-8.674,4.928
		c-0.439,0.898-1.102,2.634-2.084,4.164c-1.287,2.002-2.982,3.75-4.195,5.791c-0.592,0.997-0.486,2.408-0.697,3.632
		c0.994,0.114,1.986,0.245,2.982,0.339C445.523,514.974,446.564,515.036,447.945,515.139z M232.768,236.275
		c-0.169,0.088-0.337,0.176-0.506,0.265c0.578,1.064,0.97,2.296,1.762,3.164c4.285,4.693,8.547,9.419,13.049,13.9
		c5.824,5.796,11.955,11.284,17.794,17.065c8.773,8.685,17.395,17.521,26.129,26.246c0.623,0.624,1.639,0.855,2.471,1.271
		c0.256-0.347,0.513-0.692,0.77-1.039C273.747,276.856,253.257,256.566,232.768,236.275z M355.404,388.985
		c-0.787,0.778-1.777,1.745-2.756,2.727c-1.922,1.928-4.041,3.706-5.691,5.845c-1.494,1.934-0.859,2.733,1.375,3.806
		c2.092,1.005,3.959,2.479,6.492,4.112c1.141-1.021,3.35-2.211,4.254-4.045c0.805-1.639,0.168-3.986,0.168-6.397
		c-0.379-0.355-1.109-1.04-1.77-1.657c0.738-0.679,1.291-1.188,1.564-1.439C357.619,390.782,356.387,389.784,355.404,388.985z
		 M325.32,356.011c-0.678,0.713-1.354,1.427-2.03,2.14c-0.747-1.982-1.581-3.938-2.223-5.953c-1.189-3.728-4.662-2.731-7.237-3.545
		c-0.331-0.105-1.236,0.517-1.334,0.93c-0.646,2.787-0.307,5.565,2.08,7.301c2.234,1.624,4.822,3.073,7.685,0.809
		C323.161,356.979,324.294,356.563,325.32,356.011z M93.13,522.02c0.531,1.586,0.856,3.026,1.49,4.314
		c0.604,1.231,1.518,3.237,2.316,3.247c1.521,0.021,3.964,0.606,4.299-2.415c0.134-1.206,1.359-2.289,2.084-3.423
		C99.536,519.48,96.593,519.089,93.13,522.02z M440.758,504.071c2.02-1.729,3.949-3.341,5.832-5.007
		c0.928-0.821,2.146-1.598,2.539-2.654c0.344-0.923-0.281-2.208-0.479-3.335c-1.086,0.481-2.18,0.945-3.254,1.45
		c-0.428,0.2-0.801,0.516-1.219,0.736C440.291,497.318,439.377,499.68,440.758,504.071z M516.143,147.712
		c-0.287,1.622-0.859,2.117-2.896,3.275c-0.406,0.231-0.713,1.563-0.621,1.615c1.514,0.869,3.035,1.869,4.693,2.265
		c0.703,0.167,1.99-0.809,2.541-1.595C521.301,151.222,519.701,148.811,516.143,147.712z M496.9,148.8
		c-4.08-4.028-8.082-1.588-12.063-0.414c0.398,1.286,0.752,2.419,1.221,3.933C489.639,151.053,492.217,146.574,496.9,148.8z
		 M341.5,385.021c-0.846-1.981,1.992-5.761-3.006-6.223c-0.096,1.178-0.191,2.352-0.283,3.481c-1.35-0.145-2.449-0.263-3.549-0.38
		c-0.021,0.535-0.271,1.349-0.021,1.555c0.786,0.646,1.711,1.313,2.674,1.505C338.58,385.213,339.936,385.021,341.5,385.021z
		 M295.42,364.176c-2.852-3.588-4.265-8.49-9.893-10.987C287.318,359.188,291.76,361.326,295.42,364.176z M432.861,63.454
		c4.252,0.723,5.783-0.401,6.813-5.125C436.914,59.503,433.361,59.028,432.861,63.454z M327.363,330.591
		c0.037-0.043,0.073-0.085,0.109-0.127c-3.219-3.176-6.438-6.352-9.657-9.527c-0.026,0.031-0.051,0.063-0.077,0.095
		C320.947,324.218,324.156,327.404,327.363,330.591z M349.041,392.297c2.725-1.63,3.58-5.64,1.771-8.943
		C352.098,386.729,345.676,388.463,349.041,392.297z M324.73,364.994c-0.718,1.049-1.349,1.797-1.771,2.647
		c-0.35,0.705-0.455,1.53-0.668,2.303c0.84,0.013,2.029,0.383,2.451-0.03c1.273-1.246,2.246-2.798,3.137-3.967
		C327.236,365.752,325.894,365.346,324.73,364.994z M453.467,62.692c-1.68,4.338-1.68,4.338,1.951,5.318
		c0.676-1.556,1.348-3.101,1.883-4.333C455.775,63.286,454.729,63.017,453.467,62.692z"/>
	<path class="st0" d="M120.797,224.744c0.902-0.756,1.552-1.302,2.393-2.005c-0.902-0.758-1.68-1.411-2.66-2.233
		c0.65-1.224,1.322-2.492,1.994-3.759c-0.378-0.247-0.757-0.494-1.135-0.741c-1.047,1.631-2.18,3.213-3.118,4.905
		c-0.968,1.749-1.565,3.728-2.69,5.354c-0.511,0.739-2.054,1.406-2.866,1.177c-2.708-0.765-5.138-2.13-5.827-5.254
		c-0.828-3.754-0.701-8.146-2.701-11.103c-2.415-3.568-1.907-6.996-1.803-10.489c0.122-4.097,1.458-8.167,1.487-12.255
		c0.032-4.445,2.48-7.826,3.829-11.69c0.318-0.912,0.426-2.364-0.079-3.019c-2.614-3.386,0.396-5.385,1.789-7.65
		c1.704-2.771,5.518-5.479,5.297-7.933c-0.424-4.708,3.755-5.591,5.033-8.656c1.564-3.751,5.598-3.685,8.891-4.409
		c2.391-0.525,4.169-1.148,5.735-3.443c1.613-2.364,4.447-3.898,6.757-5.782c1.693-1.381,3.306-2.895,5.136-4.065
		c1.632-1.044,3.512-1.699,5.459-2.608c-1.776-0.694-3.568-1.393-6.143-2.398c1.407-0.245,2.202-0.556,2.962-0.486
		c3.252,0.294,5.372-0.687,6.29-4.175c0.62-2.354,1.967-4.524,3.064-6.74c1.005-2.028-0.151-3.34-1.694-3.943
		c-1.025-0.401-2.481,0.066-3.675,0.396c-1.165,0.321-2.242,0.961-3.573,1.112c0.747-1.878,0.109-4.667,3.404-4.414
		c0.137,0.011,0.847-1.934,0.508-2.404c-0.667-0.927-1.884-1.458-3.164-2.355c0.129-1.209,0.978-3.288,0.302-4.55
		c-0.629-1.174-2.883-1.477-4.387-2.148c-0.682-2.086-1.407-4.303-2.333-7.137c3.352,1.43,6.01,2.564,7.675,3.274
		c2.871-1.466,5.147-2.628,7.424-3.791c0.35,0.396,0.701,0.792,1.051,1.188c-0.885,1.424-1.77,2.849-2.828,4.554
		c3.207-0.566,6.189-1.092,9.109-1.607c-0.541-3.579-1.064-7.044-1.588-10.51c2.134,4.695,5.51,8.922,4.184,14.743
		c-0.509,2.233-0.392,4.731,2.167,6.785c1.808,1.452,2.333,4.507,3.417,6.853c0.438,0.949,0.618,2.137,1.306,2.826
		c1.479,1.481,4.509,2.126,1.896,5.247c-0.305,0.364,1.49,2.233,1.95,3.533c1.805,5.104,3.422,10.274,5.209,15.385
		c0.478,1.366,1.411,2.567,1.967,3.914c2.418,5.872,4.89,11.726,7.125,17.669c2.772,7.372,4.906,15.011,8.085,22.194
		c3.95,8.928,8.683,17.51,13.084,26.237c1.139,2.258,0.048,3.311-1.882,4.481c-2.971,1.8-5.821,3.87-8.45,6.141
		c-2.392,2.067-4.5,4.484-6.592,6.87c-3.677,4.192-7.56,8.259-10.742,12.809c-1.842,2.634-3.349,5.17-6.654,5.988
		c-0.214,0.053-0.412,0.244-0.579,0.409c-1.292,1.282-2.779,3.787-3.817,3.611c-2.302-0.389-4.33-2.217-6.553-3.286
		c-5.171-2.486-10.272-5.179-15.617-7.228c-9.341-3.582-18.864-6.683-28.255-10.14C123.855,227.431,122.629,226.074,120.797,224.744
		z M187.805,184.517c-0.284-0.117-0.568-0.235-0.853-0.352c0.934-5.847-2.407-8.272-6.433-10.344
		c-5.956-3.065-12.095-5.772-18.081-8.782c-2.945-1.481-6.151-2.853-8.461-5.08c-2.563-2.47-4.667-4.58-8.458-2.898
		c-0.958,0.425-2.1,0.822-3.096,0.707c-4.311-0.501-6.193,2.138-7.675,5.509c-5.224,11.889-10.563,23.728-15.681,35.662
		c-2.012,4.692-0.402,8.307,4.379,10.365c12.273,5.282,24.679,10.267,36.859,15.755c5.77,2.601,10.583-0.125,12.764-5.425
		c2.834-6.889,5.875-13.693,8.77-20.558C183.878,194.244,185.821,189.372,187.805,184.517z M159.591,130.33
		c-0.557,0.11-1.114,0.22-1.671,0.331c0.37,1.838,0.478,3.79,1.211,5.469c0.419,0.96,1.858,1.475,2.837,2.19
		c0.713-1.003,1.426-2.006,2.624-3.693c-2.26,0.178-3.264,0.257-4.134,0.326C160.151,133.313,159.871,131.821,159.591,130.33z
		 M162.844,97.495c-0.168-0.11-0.336-0.22-0.503-0.331c-1.397,1.534-2.793,3.068-4.28,4.702c1.482,1.126,2.549,1.937,3.2,2.432
		C161.805,101.955,162.325,99.725,162.844,97.495z"/>
	<path class="st0" d="M361.945,406.009c1.781-1.849,3.215-1.719,4.764,0.454c1.363,1.912,3.119,3.546,5.088,4.997
		c0.893-2.228,0.771-3.217-1.361-4.654c-2.531-1.704-3.951-5.058-5.854-7.696c0.379-0.303,0.756-0.604,1.133-0.906
		c1.512,1.794,2.975,3.633,4.555,5.364c0.848,0.926,1.941,1.623,2.85,2.5c4.756,4.591,10.02,8.782,14.08,13.924
		c4.297,5.442,10.021,9.017,14.861,13.67c3.479,3.344,5.746,8.091,9.512,10.947c3.773,2.861,3.658,7.835,7.408,10.502
		c1.877,1.336,2.932,3.811,4.416,5.728c0.461,0.596,1.131,1.522,1.664,1.494c5.584-0.294,8.824,4.016,12.553,6.817
		c3.986,2.999,7.076,7.225,10.383,11.069c1.301,1.511,2.223,3.387,3.104,5.201c0.279,0.573,0.092,1.625-0.273,2.219
		c-2.041,3.327-9.322,6.326-13.412,5.61c-0.359,2.39-1.43,3.534-3.979,2.353c-0.967-0.448-2.094-0.538-3.115-0.885
		c-2.236-0.759-3.156-1.784-1.463-4.188c1.959-2.782,0.621-5.009-2.697-5.565c-1.273-0.214-2.926-0.978-3.516-2.003
		c-2.984-5.18-8.926-6.287-12.998-9.865c-3.271-2.872-6.168-6.175-9.189-9.327c-5.725-5.973-11.428-11.967-17.123-17.967
		c-2.744-2.89-5.543-5.734-8.111-8.773c-0.68-0.807-0.596-2.258-1.07-4.319c2.73,1.206,4.639,2.049,6.549,2.893
		c0.264-0.203,0.527-0.406,0.791-0.609c-2.463-3.506-4.92-7.015-7.391-10.514c-0.203-0.287-0.553-0.475-0.736-0.771
		c-1.254-2.036-2.152-4.431-3.814-6.038c-1.611-1.563-4-2.326-6.168-3.505c0.797-2.191,1.516-4.165,2.342-6.436
		c-1.25-0.564-2.525-1.139-3.799-1.714L361.945,406.009z M390.336,442.023c0.139-0.508,0.275-1.015,0.414-1.523
		c-5.088,2.247-4.188-3.607-7.373-4.533c-0.254,3.001,0.563,5.211,3.209,6.192C387.672,442.56,389.076,442.095,390.336,442.023z"/>
	<path class="st0" d="M476.729,142.672c-4.275,0.737-7.68-1.657-11.32-3.181c-0.293-0.122-0.66-0.526-0.666-0.805
		c-0.047-2.948-0.318-5.949,0.189-8.807c0.119-0.672,2.941-0.863,4.645-1.308c-1.92-5.203,2.969-8.41,5.4-12.433
		c0.957-1.582,4.5-1.116,4.553-4.218c0.779,0.452,1.555,0.904,2.521,1.467c1.135-2.869,2.42-6.122,3.709-9.387
		c4.617,0.804,1.607,4.393,2.828,6.264c3.516-3.582,6.955-7.087,10.393-10.592c0.291,0.21,0.582,0.419,0.873,0.629
		c0-2.192,0-4.384,0-6.576c0.287-0.008,0.574-0.015,0.861-0.023c0,0.924,0,1.849,0,3.063c1.01-0.58,1.762-1.011,1.811-1.04
		c0.932,2.052,1.797,3.958,2.773,6.113c-1.563,1.928-1.645,6.441,0.033,8.902c-0.781,1.783-1.498,3.424-2.371,5.42
		c5.279-0.925,6.75-2.807,7.773-9.188c0.455-2.83,0.967-3.221,2.83-2.676c-1.178,3.87-2.355,7.731-3.523,11.595
		c-0.137,0.453-0.215,0.922-0.322,1.384c-1.221,5.281-5.295,6.29-9.852,6.582c-0.92,0.059-1.838,0.137-3.561,0.266
		c1.195,1.277,1.924,2.055,2.889,3.085c-1.123,0.931-2.26,1.874-3.938,3.265c-0.391-2.009-0.746-3.84-1.066-5.493
		c-1.193-0.986-2.504-2.071-4.293-3.551c0.254,1.246,0.508,2.494,0.852,4.19c-1.096-0.273-2.232-0.556-3.836-0.955
		c0.73,1.282,1.309,2.297,1.746,3.063c-1.596,2.255-2.928,4.407-4.533,6.333c-1.725,2.071-3.57,4.101-5.656,5.782
		c-0.68,0.547-2.287-0.061-3.814-0.163c0.867,1.354,1.422,2.222,1.979,3.09L476.729,142.672z"/>
	<path class="st0" d="M225.273,261.58c-1.367,1.191-1.951,1.699-2.515,2.19c1.354,1.88,2.524,3.679,3.868,5.339
		c3.432,4.24,6.954,8.407,10.416,12.623c5.133,6.254,10.213,12.553,15.378,18.78c5.052,6.091,10.203,12.099,15.253,18.191
		c0.735,0.886,1.528,2.015,1.598,3.079c0.074,1.12-0.382,2.867-1.168,3.286c-0.799,0.426-2.707-0.047-3.395-0.799
		c-3.155-3.44-6.05-7.121-9.043-10.711c-7.068-8.479-14.12-16.971-21.213-25.428c-7.675-9.149-15.374-18.279-23.094-27.392
		c-3.402-4.016-7.075-7.819-10.265-11.993c-2.595-3.393-2.01-4.347,2.102-5.746c1.074-0.365,2.013-1.271,2.881-2.072
		c3.127-2.892,5.124-3.024,7.81,0.081c4.584,5.298,9.028,10.723,13.387,16.208c0.518,0.652,0.137,2.019,0.173,3.053
		c-0.917-0.381-1.937-0.622-2.712-1.193c-0.509-0.375-0.505-1.546-1.013-1.802c-0.971-0.49-2.234-0.942-3.198-0.699
		c-0.553,0.14-1.245,1.862-0.986,2.527c0.295,0.757,1.536,1.223,2.446,1.638C222.737,261.087,223.608,261.173,225.273,261.58z"/>
	<path class="st0" d="M457.973,521.967c0.256-9.115,7.518-14.605,16.154-14.821s14.879,7.409,14.797,15.81
		c-0.082,8.466-7.74,14.182-15.672,14.774C464.219,538.404,457.529,529.367,457.973,521.967z"/>
	<path class="st0" d="M190.909,247.022c1.612,1.788,3.226,3.571,4.834,5.361c8.299,9.234,16.5,18.559,24.916,27.686
		c13.576,14.722,27.297,29.309,40.942,43.966c0.731,0.786,1.565,1.607,1.921,2.571c0.358,0.964,0.458,2.969,0.183,3.062
		c-1.215,0.408-2.643,0.497-3.921,0.278c-0.679-0.117-1.404-0.997-1.779-1.706c-4.431-8.39-12.025-14.03-18.138-20.952
		c-5.806-6.575-11.65-13.116-17.535-19.619c-5.606-6.196-11.239-12.369-16.955-18.465c-3.749-3.999-7.999-7.577-11.382-11.853
		c-2.131-2.692-3.073-6.324-4.549-9.535C189.934,247.552,190.421,247.288,190.909,247.022z"/>
	<path class="st0" d="M485.072,84.783c-4.688,1.115-7.234-0.16-9.217-3.428c-1.693-2.79-3.672-5.406-5.264-7.719
		c0.039,0.01,1.021,0.337,2.029,0.489c1.064,0.161,2.211-0.031,3.227,0.261c2.006,0.578,3.965,1.341,5.9,2.135
		c0.346,0.142,0.389,1.057,0.727,1.176c3.012,1.059,4.43,3.453,5.115,6.742c1.574-1.203,2.695-2.06,3.957-3.022
		c0.381,1.611,0.67,2.828,0.957,4.044c0.256,0.032,0.512,0.065,0.768,0.098c0.4-0.849,0.801-1.698,1.201-2.546
		c0.309-0.057,0.617-0.114,0.926-0.17c0.408,3.071,0.818,6.143,1.256,9.434c-3.949,1.111-5.203,4.049-5.348,7.536
		c-0.033,0.795,0.973,1.633,1.906,3.075c-0.162,0.153-0.859,0.814-1.457,1.382c-1.066-0.905-1.873-1.504-2.568-2.21
		c-0.479-0.485-1.236-1.239-1.121-1.671c0.504-1.875,1.793-3.068-0.201-5.535C485.9,92.42,485.957,88.355,485.072,84.783z"/>
	<path class="st0" d="M447.945,515.139c-1.381-0.103-2.422-0.165-3.463-0.262c-0.996-0.094-1.988-0.225-2.982-0.339
		c0.211-1.224,0.105-2.635,0.697-3.632c1.213-2.041,2.908-3.789,4.195-5.791c0.982-1.53,1.645-3.266,2.084-4.164
		c3.172-1.826,5.813-3.619,8.674-4.928c4.254-1.946,8.701-2.751,14.508-0.72C461.488,500.459,453.783,506.99,447.945,515.139z"/>
	<path class="st0" d="M232.768,236.275c20.489,20.291,40.979,40.581,61.469,60.871c-0.257,0.347-0.514,0.692-0.77,1.039
		c-0.832-0.415-1.848-0.646-2.471-1.271c-8.734-8.725-17.356-17.561-26.129-26.246c-5.839-5.781-11.97-11.269-17.794-17.065
		c-4.502-4.48-8.764-9.207-13.049-13.9c-0.792-0.868-1.184-2.1-1.762-3.164C232.431,236.452,232.599,236.364,232.768,236.275z"/>
	<path class="st0" d="M355.404,388.985c0.982,0.799,2.215,1.797,3.637,2.95c-0.273,0.252-0.826,0.761-1.564,1.439
		c0.66,0.617,1.391,1.302,1.77,1.657c0,2.411,0.637,4.759-0.168,6.397c-0.904,1.834-3.113,3.024-4.254,4.045
		c-2.533-1.633-4.4-3.107-6.492-4.112c-2.234-1.072-2.869-1.872-1.375-3.806c1.65-2.139,3.77-3.917,5.691-5.845
		C353.627,390.73,354.617,389.764,355.404,388.985z"/>
	<path class="st0" d="M337.779,372.648c-1.76,1.003-3.469,2.114-5.301,2.963c-0.916,0.424-2.055,0.368-3.094,0.529
		c-0.218-1.47-1.076-3.271-0.521-4.341c1.096-2.115,2.974-3.825,4.336-5.47c-2.373-2.461-4.459-4.625-6.877-7.131
		c0.35-0.906,0.886-2.301,1.422-3.694c0.313-0.118,0.625-0.236,0.936-0.354c1.629,6.406,7.841,9.2,10.299,15.355
		c-0.18,0.313-0.715,1.245-1.25,2.177L337.779,372.648z"/>
	<path class="st0" d="M325.32,356.011c-1.026,0.552-2.159,0.969-3.06,1.681c-2.862,2.265-5.45,0.815-7.685-0.809
		c-2.387-1.735-2.726-4.514-2.08-7.301c0.098-0.413,1.003-1.035,1.334-0.93c2.575,0.813,6.048-0.183,7.237,3.545
		c0.642,2.015,1.476,3.971,2.223,5.953C323.967,357.438,324.643,356.724,325.32,356.011z"/>
	<path class="st0" d="M93.13,522.02c3.463-2.931,6.406-2.539,10.189,1.724c-0.725,1.134-1.95,2.217-2.084,3.423
		c-0.335,3.021-2.778,2.436-4.299,2.415c-0.798-0.01-1.712-2.016-2.316-3.247C93.986,525.046,93.661,523.605,93.13,522.02z"/>
	<path class="st0" d="M300.939,363.252c-6.396-2.844-12.247-10.929-10.068-15.06c3.362,3.406,6.785,6.49,9.662,10.02
		c0.877,1.077,0.252,3.379,0.314,5.119L300.939,363.252z"/>
	<path class="st0" d="M440.758,504.071c-1.381-4.392-0.467-6.753,3.42-8.81c0.418-0.221,0.791-0.536,1.219-0.736
		c1.074-0.505,2.168-0.969,3.254-1.45c0.197,1.127,0.822,2.412,0.479,3.335c-0.393,1.057-1.611,1.833-2.539,2.654
		C444.707,500.73,442.777,502.343,440.758,504.071z"/>
	<path class="st0" d="M516.143,147.712c3.559,1.099,5.158,3.51,3.717,5.561c-0.551,0.786-1.838,1.761-2.541,1.595
		c-1.658-0.396-3.18-1.396-4.693-2.265c-0.092-0.052,0.215-1.384,0.621-1.615C515.283,149.829,515.855,149.334,516.143,147.712z"/>
	<path class="st0" d="M496.9,148.8c-4.684-2.226-7.262,2.253-10.842,3.52c-0.469-1.514-0.822-2.647-1.221-3.933
		C488.818,147.211,492.82,144.771,496.9,148.8z"/>
	<path class="st0" d="M341.5,385.021c-1.564,0-2.92,0.191-4.186-0.062c-0.963-0.192-1.888-0.859-2.674-1.505
		c-0.249-0.206,0-1.02,0.021-1.555c1.1,0.117,2.199,0.235,3.549,0.38c0.092-1.13,0.188-2.304,0.283-3.481
		C343.492,379.261,340.654,383.04,341.5,385.021z"/>
	<path class="st0" d="M295.42,364.176c-3.66-2.85-8.102-4.988-9.893-10.987C291.155,355.686,292.568,360.588,295.42,364.176z"/>
	<path class="st0" d="M432.861,63.454c0.5-4.426,4.053-3.951,6.813-5.125C438.645,63.053,437.113,64.177,432.861,63.454z"/>
	<path class="st0" d="M327.363,330.591c-3.207-3.187-6.416-6.373-9.625-9.56c0.026-0.031,0.051-0.063,0.077-0.095
		c3.22,3.176,6.438,6.352,9.657,9.527C327.437,330.506,327.4,330.548,327.363,330.591z"/>
	<path class="st0" d="M476.635,142.771c1.414,0.493,2.83,0.986,4.246,1.479c-0.588,1.094-0.92,2.623-1.834,3.16
		c-0.934,0.548-2.438,0.121-3.309,0.121c0.459-2.246,0.727-3.555,0.992-4.862C476.729,142.672,476.635,142.771,476.635,142.771z"/>
	<path class="st0" d="M349.041,392.297c-3.365-3.834,3.057-5.567,1.771-8.943C352.621,386.657,351.766,390.667,349.041,392.297z"/>
	<path class="st0" d="M324.73,364.994c1.163,0.352,2.506,0.758,3.148,0.953c-0.891,1.169-1.863,2.721-3.137,3.967
		c-0.422,0.413-1.611,0.043-2.451,0.03c0.213-0.772,0.318-1.598,0.668-2.303C323.382,366.791,324.013,366.043,324.73,364.994z"/>
	<path class="st0" d="M453.467,62.692c1.262,0.324,2.309,0.594,3.834,0.985c-0.535,1.231-1.207,2.777-1.883,4.333
		C451.787,67.03,451.787,67.03,453.467,62.692z"/>
	<path class="st0" d="M300.848,363.331c3.424,1.283,6.295,3.132,7.438,6.75c-0.313,0.31-0.625,0.619-0.938,0.928
		c-1.463-1.623-2.963-3.214-4.371-4.881c-0.756-0.894-1.354-1.923-2.03-2.883C300.939,363.252,300.848,363.331,300.848,363.331z"/>
	<path class="st0" d="M361.926,406.015c0.273,0.612,0.941,1.416,0.752,1.802c-0.938,1.921-2.102,3.73-3.322,5.814
		c-2.588-4.06,1.047-5.455,2.598-7.622C361.945,406.009,361.926,406.015,361.926,406.015z"/>
	<path class="st0" d="M337.729,372.684c0.777,0.967,1.555,1.935,2.523,3.141c-1.83,0.674-2.535,4.59-5.188,1.989
		c1.027-1.965,1.855-3.55,2.699-5.149C337.779,372.648,337.729,372.684,337.729,372.684z"/>
	<path class="st1" d="M187.805,184.517c-1.984,4.854-3.927,9.727-5.965,14.56c-2.895,6.865-5.936,13.669-8.77,20.558
		c-2.181,5.3-6.994,8.025-12.764,5.425c-12.18-5.488-24.585-10.473-36.859-15.755c-4.782-2.058-6.392-5.673-4.379-10.365
		c5.118-11.934,10.457-23.772,15.681-35.662c1.482-3.372,3.364-6.011,7.675-5.509c0.997,0.115,2.138-0.282,3.096-0.707
		c3.791-1.682,5.895,0.428,8.458,2.898c2.31,2.228,5.516,3.599,8.461,5.08c5.986,3.009,12.125,5.716,18.081,8.782
		c4.025,2.072,7.366,4.497,6.433,10.344C187.237,184.282,187.521,184.4,187.805,184.517z M167.454,186.441
		c-2.708-1.456-5.416-2.912-7.551-4.06c0.637-3.586,1.17-6.589,1.702-9.588c-5.359-1.087-6.166-0.509-5.415,2.831
		c-1.06,1.607-1.864,2.826-2.868,4.349c-2.758-0.466-6.211-1.049-9.664-1.633C150.584,184.037,159.167,184.847,167.454,186.441z
		 M134.688,187.937c-0.09,0.333-0.181,0.666-0.271,0.999c4.868,1.908,9.667,4.027,14.624,5.665c4.963,1.64,10.085,2.8,15.137,4.169
		c0.147-0.446,0.293-0.894,0.44-1.34c-3.674-1.783-7.346-3.567-11.451-5.561c1.463-0.668,2.263-1.034,4.249-1.94
		c-2.805-1.327-4.639-2.418-6.623-2.93c-0.366-0.094-1.338,2.158-2.082,3.414C144.28,189.629,139.484,188.783,134.688,187.937z
		 M137.433,200.8c2.301,3.094,14.415,6.652,17.906,5.327c-2.704-1.296-5.204-2.495-7.224-3.462c1.175-0.884,2.247-1.688,3.317-2.493
		c-1.41-1.1-2.768-2.939-4.249-3.045c-1.03-0.073-2.229,2.236-3.353,3.481c0.205,0.276,0.409,0.551,0.614,0.827
		C142.244,201.235,140.044,201.036,137.433,200.8z M164.746,219.711c0.281,0.208,0.563,0.417,0.845,0.625
		c0.614-0.809,1.378-1.545,1.813-2.44c1.44-2.965,2.829-5.959,4.112-8.996c1.88-4.446,3.716-8.916,5.413-13.435
		c0.311-0.83-0.128-1.941-0.222-2.923c-0.361,0.014-0.723,0.028-1.085,0.042C171.997,201.626,168.371,210.668,164.746,219.711z
		 M145.438,212.856c-0.897-1.597-1.795-3.193-3.031-5.391C140.039,211.615,141.999,212.616,145.438,212.856z"/>
	<path class="st1" d="M159.591,130.33c0.28,1.491,0.56,2.983,0.867,4.623c0.87-0.069,1.874-0.148,4.134-0.326
		c-1.198,1.687-1.911,2.689-2.624,3.693c-0.979-0.715-2.418-1.23-2.837-2.19c-0.733-1.679-0.841-3.63-1.211-5.469
		C158.477,130.55,159.034,130.44,159.591,130.33z"/>
	<path class="st1" d="M162.844,97.495c-0.519,2.23-1.039,4.46-1.584,6.803c-0.651-0.495-1.718-1.306-3.2-2.432
		c1.487-1.634,2.883-3.168,4.28-4.702C162.508,97.274,162.676,97.384,162.844,97.495z"/>
	<path class="st1" d="M390.336,442.023c-1.26,0.071-2.664,0.536-3.75,0.136c-2.646-0.981-3.463-3.191-3.209-6.192
		c3.186,0.926,2.285,6.78,7.373,4.533C390.611,441.009,390.475,441.516,390.336,442.023z"/>
	<path class="st0" d="M167.454,186.441c-8.286-1.594-16.869-2.404-23.795-8.102c3.453,0.583,6.905,1.167,9.664,1.633
		c1.004-1.523,1.808-2.742,2.868-4.349c-0.75-3.34,0.056-3.918,5.415-2.831c-0.532,3-1.065,6.002-1.702,9.588
		C162.038,183.529,164.746,184.985,167.454,186.441z"/>
	<path class="st0" d="M134.688,187.937c4.796,0.846,9.593,1.692,14.023,2.474c0.744-1.256,1.715-3.508,2.082-3.414
		c1.984,0.512,3.818,1.604,6.623,2.93c-1.986,0.907-2.786,1.272-4.249,1.94c4.105,1.994,7.777,3.778,11.451,5.561
		c-0.147,0.447-0.293,0.894-0.44,1.34c-5.052-1.369-10.174-2.529-15.137-4.169c-4.957-1.638-9.756-3.757-14.624-5.665
		C134.507,188.603,134.597,188.27,134.688,187.937z"/>
	<path class="st0" d="M137.433,200.8c2.611,0.236,4.812,0.436,7.011,0.634c-0.205-0.276-0.409-0.551-0.614-0.827
		c1.124-1.245,2.323-3.555,3.353-3.481c1.481,0.106,2.839,1.946,4.249,3.045c-1.07,0.805-2.142,1.609-3.317,2.493
		c2.021,0.968,4.521,2.167,7.224,3.462C151.848,207.452,139.734,203.894,137.433,200.8z"/>
	<path class="st0" d="M164.746,219.711c3.625-9.042,7.251-18.084,10.876-27.127c0.362-0.013,0.724-0.027,1.085-0.042
		c0.094,0.981,0.533,2.093,0.222,2.923c-1.697,4.519-3.533,8.988-5.413,13.435c-1.283,3.037-2.672,6.031-4.112,8.996
		c-0.435,0.896-1.199,1.632-1.813,2.44C165.309,220.128,165.027,219.919,164.746,219.711z"/>
	<path class="st0" d="M145.438,212.856c-3.438-0.24-5.399-1.242-3.031-5.391C143.642,209.663,144.54,211.26,145.438,212.856z"/>
</g>
</svg>
