<?xml version="1.0" encoding="utf-8"?>
<!-- Generator: Adobe Illustrator 16.0.0, SVG Export Plug-In . SVG Version: 6.00 Build 0)  -->
<!DOCTYPE svg PUBLIC "-//W3C//DTD SVG 1.1//EN" "http://www.w3.org/Graphics/SVG/1.1/DTD/svg11.dtd">
<svg version="1.1" xmlns="http://www.w3.org/2000/svg" xmlns:xlink="http://www.w3.org/1999/xlink" x="0px" y="0px" width="600px"
	 height="600px" viewBox="0 0 600 600" enable-background="new 0 0 600 600" xml:space="preserve">
<g id="Layer_4" display="none">
	
		<line display="inline" fill="none" stroke="#FF0000" stroke-width="24" stroke-miterlimit="10" x1="470" y1="303" x2="585" y2="303"/>
	
		<line display="inline" fill="none" stroke="#FF0000" stroke-width="23" stroke-miterlimit="10" x1="18" y1="300.5" x2="170" y2="300.5"/>
</g>
<g id="Layer_2">
	<polygon fill="none" stroke="#000000" stroke-width="44" stroke-miterlimit="10" points="164.385,553 25.241,302 164.385,53 
		438.289,53 575.241,303 438.289,553 	"/>
</g>
<g id="Layer_3">
	<path d="M261.922,217.086l-29.297,71.973h67.676c9.049,0,13.574,3.125,13.574,9.375c0,4.427-1.596,7.861-4.785,10.303
		c-3.19,2.441-7.617,3.662-13.281,3.662h-72.656l-1.172,2.734c-4.558,10.156-8.139,17.285-10.742,21.387
		c-2.604,4.102-5.991,8.072-10.156,11.914c-10.874,9.961-23.374,14.941-37.5,14.941c-11.459,0-20.914-3.418-28.369-10.254
		c-7.454-6.836-11.182-15.527-11.182-26.074c0-6.576,1.596-12.729,4.785-18.457c3.19-5.729,7.52-10.189,12.988-13.379
		c7.095-4.102,16.731-6.152,28.906-6.152h34.473l29.199-71.973h-11.719h-2.637c-7.292,0-10.938-3.223-10.938-9.668
		c0-4.231,1.595-7.568,4.785-10.01c3.189-2.441,7.617-3.662,13.281-3.662h16.699l4.492-11.035
		c8.528-21.094,21.549-31.641,39.063-31.641c8.919,0,16.341,2.817,22.266,8.447c5.924,5.632,8.887,12.68,8.887,21.143
		c0,10.808-4.297,19.58-12.891,26.318s-19.76,10.107-33.496,10.107H261.922z M195.613,312.398H169.93
		c-12.761,0-19.141,4.524-19.141,13.574c0,3.711,1.399,6.819,4.199,9.326c2.798,2.506,6.314,3.76,10.547,3.76
		c5.794,0,11.377-2.393,16.748-7.178S192.098,320.602,195.613,312.398z M271.395,193.746h4.492c4.883,0,9.065-1.221,12.549-3.662
		c3.482-2.441,5.225-5.42,5.225-8.936c0-5.208-2.441-7.813-7.324-7.813c-4.428,0-8.496,4.558-12.207,13.672L271.395,193.746z"/>
	<path d="M469.5,290.833c-7.422,0-12.992,2.875-16.572,9.125l-2.051,3.809l-43.945,75.684l1.758-74.316l0.098-1.074
		c0-4.492-1.4-8.089-4.199-10.791c-2.8-2.701-6.479-4.053-11.035-4.053c-8.008,0-13.965,4.33-17.871,12.988l-34.863,75.684
		l-0.586-33.984l-0.098-7.715c0-16.406-2.849-28.336-8.545-35.791c-5.697-7.454-14.893-11.182-27.588-11.182
		c-13.867,0-26.286,5.322-37.256,15.967c-10.971,10.645-16.455,22.705-16.455,36.182c0,11.068,3.45,20.215,10.352,27.441
		c6.9,7.227,15.625,10.84,26.172,10.84c6.836,0,12.5-1.449,16.992-4.346s6.738-6.527,6.738-10.889c0-6.576-3.972-9.863-11.914-9.863
		c-0.326,0-1.107,0.033-2.344,0.098c-1.237,0.064-2.539,0.098-3.906,0.098c-4.753,0-8.594-1.465-11.523-4.395
		s-4.395-6.771-4.395-11.523c0-5.664,2.604-11.279,7.813-16.846c5.208-5.566,10.449-8.35,15.723-8.35
		c5.924,0,9.912,2.066,11.963,6.201s3.076,12.158,3.076,24.072l2.051,67.48c0,5.469,1.383,9.75,4.15,12.842
		c2.767,3.092,6.592,4.639,11.475,4.639c6.771,0,11.946-3.842,15.527-11.523l35.547-75.977l-2.539,70.02
		c0,5.6,1.334,9.912,4.004,12.939c2.669,3.027,6.445,4.541,11.328,4.541c6.38,0,11.816-3.842,16.309-11.523l60.156-103.418
		l6.518-11.424c1.438-2.5,1.526-6.598-1.563-9.344C474.906,290.406,469.5,290.833,469.5,290.833z"/>
</g>
</svg>
