<?xml version="1.0" encoding="utf-8"?>
<!-- Generator: Adobe Illustrator 16.0.0, SVG Export Plug-In . SVG Version: 6.00 Build 0)  -->
<!DOCTYPE svg PUBLIC "-//W3C//DTD SVG 1.1//EN" "http://www.w3.org/Graphics/SVG/1.1/DTD/svg11.dtd">
<svg version="1.1" id="Layer_1" xmlns="http://www.w3.org/2000/svg" xmlns:xlink="http://www.w3.org/1999/xlink" x="0px" y="0px"
	 width="50px" height="50px" viewBox="0 0 50 50" enable-background="new 0 0 50 50" xml:space="preserve">
<g>
	<g>
		<path d="M1.945,3.416c7.792-1.4,15.699,0.072,23.538-0.335c8.042-0.418,16.005,0.303,24.049,0.331c1.935,0.006,1.935-2.994,0-3
			c-8.049-0.027-16-0.58-24.049-0.331C17.377,0.331,9.195-0.923,1.147,0.523C-0.754,0.865,0.054,3.756,1.945,3.416L1.945,3.416z"/>
	</g>
</g>
<g>
	<g>
		<path d="M-0.246,1.62C0.668,17.429-0.08,33.132,0.163,48.963c0.03,1.933,3.03,1.936,3,0C2.92,33.132,3.668,17.429,2.754,1.62
			C2.643-0.303-0.357-0.314-0.246,1.62L-0.246,1.62z"/>
	</g>
</g>
<g>
	<g>
		<path d="M1.887,50.468c7.991-1.274,16.125-1.029,24.177-0.91c7.633,0.113,15.195,0.119,22.826,0.438c1.936,0.081,1.928-2.919,0-3
			c-8.27-0.346-16.478-0.344-24.752-0.467c-7.689-0.114-15.425-0.17-23.049,1.046C-0.817,47.879-0.005,50.77,1.887,50.468
			L1.887,50.468z"/>
	</g>
</g>
<g>
	<g>
		<path d="M47.099,1.853c0.144,15.203-0.176,30.441-0.176,45.651c0,1.935,3,1.935,3,0c0-15.21,0.319-30.448,0.176-45.651
			C50.08-0.081,47.08-0.083,47.099,1.853L47.099,1.853z"/>
	</g>
</g>
<g>
	<g>
		<path d="M13.456,14.503c1.935,0,1.935-3,0-3S11.521,14.503,13.456,14.503L13.456,14.503z"/>
	</g>
</g>
<g>
	<g>
		<path d="M37.74,14.211c1.935,0,1.935-3,0-3S35.806,14.211,37.74,14.211L37.74,14.211z"/>
	</g>
</g>
<g>
	<g>
		<path d="M24.743,30.732c1.614,1.172,4.117,1.296,5.979,0.753c2.127-0.621,3.203-3.14,3.474-5.149
			c0.255-1.891-2.635-2.707-2.893-0.797c-0.145,1.07-0.479,2.792-1.668,3.138c-1.048,0.306-2.496,0.105-3.379-0.534
			C24.688,27.004,23.193,29.608,24.743,30.732L24.743,30.732z"/>
	</g>
</g>
</svg>
