<?xml version="1.0" encoding="utf-8"?>
<!-- Generator: Adobe Illustrator 16.0.0, SVG Export Plug-In . SVG Version: 6.00 Build 0)  -->
<!DOCTYPE svg PUBLIC "-//W3C//DTD SVG 1.1//EN" "http://www.w3.org/Graphics/SVG/1.1/DTD/svg11.dtd">
<svg version="1.1" id="iconmonstr" xmlns="http://www.w3.org/2000/svg" xmlns:xlink="http://www.w3.org/1999/xlink" x="0px" y="0px"
	 width="24px" height="24px" viewBox="0 0 24 24" style="enable-background:new 0 0 24 24;" xml:space="preserve">
<style type="text/css">
<![CDATA[
	.st0{fill:#FFFFFF;}
]]>
</style>
<path id="pen-7" class="st0" d="M15.813,4.819C15.481,4.478,15.5,3.942,15.84,3.612l3.469-3.365C19.479,0.083,19.696,0,19.912,0
	c0.219,0,0.438,0.085,0.604,0.257L15.813,4.819z M10.107,13.391C10.037,13.46,10,13.553,10,13.646C10,13.84,10.158,14,10.354,14
	c0.089,0,0.178-0.033,0.247-0.1l0.583-0.566l-0.493-0.509L10.107,13.391z M15.031,6.839l-1.994,1.933
	c-1.072,1.039-1.619,2.046-2.124,3.451l0.881,0.909c1.419-0.461,2.441-0.976,3.514-2.016l1.994-1.934L15.031,6.839z M20.847,0.881
	L15.71,5.863l2.587,2.671l5.138-4.98C23.811,3.188,24,2.703,24,2.217C24,0.593,22.031-0.269,20.847,0.881z M9,13H5v1h4V13z
	 M18,11.65c0,0.848,0,1.526,0,1.894C18,17.65,12,16,12,16s1.518,6-2.638,6C7.495,22,8.894,22,2,22V2h12.629l2.062-2H0v24h10.189
	C13.352,24,20,16.777,20,14.386V9.699L18,11.65z"/>
</svg>
