<?xml version="1.0" encoding="utf-8"?>
<!-- Generator: Adobe Illustrator 16.0.0, SVG Export Plug-In . SVG Version: 6.00 Build 0)  -->
<!DOCTYPE svg PUBLIC "-//W3C//DTD SVG 1.1//EN" "http://www.w3.org/Graphics/SVG/1.1/DTD/svg11.dtd">
<svg version="1.1" id="iconmonstr" xmlns="http://www.w3.org/2000/svg" xmlns:xlink="http://www.w3.org/1999/xlink" x="0px" y="0px"
	 width="24px" height="24px" viewBox="0 0 24 24" style="enable-background:new 0 0 24 24;" xml:space="preserve">
<style type="text/css">
<![CDATA[
	.st0{fill:#FFFFFF;}
]]>
</style>
<path id="paintbrush-3" class="st0" d="M17.831,7.672c1.096-1.096,2.875-1.865,3.688-3.106c0.892-1.362,0.508-3.192-0.851-4.085
	c-1.362-0.892-3.187-0.508-4.081,0.854c-0.842,1.286-0.801,3.322-1.433,4.779c-0.817,1.882-3.553,2.116-6.698,0.474
	C6.729,9.94,4.381,13.536,2,16.462l2.263,1.484c1.018-0.174,2.279-1.059,2.792-2.03c-0.04,1.167-0.478,2.2-1.337,2.983l4.275,2.797
	c0.546-0.544,1.054-0.977,1.616-1.345c-0.319,0.643-0.532,1.324-0.63,1.989l2.531,1.658c1.5-2.884,4.416-7.343,6.455-9.873
	C17.146,11.854,16.309,9.19,17.831,7.672z M19.593,2.127c0.454,0.296,0.58,0.908,0.281,1.36c-0.294,0.457-0.905,0.582-1.356,0.286
	c-0.456-0.297-0.582-0.906-0.284-1.36C18.529,1.958,19.139,1.83,19.593,2.127z M15.634,17.164l-8.225-5.386l1.616-2.469l8.221,5.386
	L15.634,17.164z"/>
</svg>
