<?xml version="1.0" encoding="utf-8"?>
<!-- Generator: Adobe Illustrator 16.0.0, SVG Export Plug-In . SVG Version: 6.00 Build 0)  -->
<!DOCTYPE svg PUBLIC "-//W3C//DTD SVG 1.1//EN" "http://www.w3.org/Graphics/SVG/1.1/DTD/svg11.dtd">
<svg version="1.1" id="Layer_1" xmlns="http://www.w3.org/2000/svg" xmlns:xlink="http://www.w3.org/1999/xlink" x="0px" y="0px"
	 width="600px" height="600px" viewBox="0 0 600 600" style="enable-background:new 0 0 600 600;" xml:space="preserve">
<style type="text/css">
<![CDATA[
	.st0{fill-rule:evenodd;clip-rule:evenodd;fill:none;}
	.st1{fill-rule:evenodd;clip-rule:evenodd;}
]]>
</style>
<g>
	<path class="st0" d="M20.79,511.316c0-165.509,0-331.019,0-496.527c185.964,0,371.93,0,557.895,0c0,161.79,0,323.579,0,485.369
		c-10.226,2.748-14.903-1.446-14.618-11.741c0.206-7.406,0.337-14.821,0.789-22.215c0.89-14.561,1.978-29.106,2.984-43.67
		c-21.675-0.942-22.117-0.978-23.546,17.971c-1.216,16.144-2.546,32.472-1.34,48.53c0.732,9.76,6.184,19.164,9.515,28.728
		c8.739-3.078,17.477-6.156,26.216-9.234c0,29.755,0,59.508,0,89.264c-90.193,0-180.386,0-270.579,0
		c14.18-13.18,6.985-29.799,8.81-45.122c-27.812-1.676-37.022,2.653-35.923,17.257c0.402,5.328,3.513,12.152,7.652,14.996
		c3.694,2.539,10.512,0.534,15.951,0.534c-4.375,4.116-9.428,4.765-14.062,6.521c-2.025,0.768-3.188,3.806-4.744,5.813
		c-88.333,0-176.667,0-265,0c0-28.118,0-55.901,0-83.685c8.462,1.675,16.925,3.348,27.163,5.375
		c-1.117-14.738,4.916-19.162,18.566-19.914c14.831-0.816,14.948,8.516,17.01,18.745c9.167-1.381,17.466-2.632,28.092-4.233
		c-9.387-27.516-18.121-52.406-26.314-77.474c-3.529-10.801-10.496-15.541-20.974-12.163c-5.293,1.708-11.782,5.882-13.779,10.61
		C39.942,460.182,30.583,485.84,20.79,511.316z M335.665,18.214c-74.257,91.93-146.014,180.768-219.924,272.268
		c9.296,0,14.316,0,19.338,0c59.92-0.002,119.847,0.341,179.76-0.302c11.93-0.128,17.141,4.729,21.005,16.712
		c-55.566,0-109.599,0-164.028,0c12.719,46.351,62.792,86.267,109.621,87.242c64.701,1.346,106.241-36.476,142.69-85.684
		c-4.724-1.534-7.945-2.577-11.405-3.7c1.195-4.636,2.251-8.725,3.695-14.32c-29.382,23.653-61.813,23.673-76.712-2.166
		c-6.798-11.79-7.073-29.867-4.403-43.975c3.665-19.382,22.053-28.102,38.458-37.647c-6.979-0.504-13.99-0.942-20.019,1.286
		c-6.38,2.359-11.824,7.252-18.076,11.297C335.665,152.898,335.665,87.643,335.665,18.214z M120.908,427.86
		c0,30.068,0,59.028,0,88.315c16.94,3.629,19.702,2.961,24.838-6.625c19.97,12.988,33.5,13.209,44.72,0.732
		c12.822-14.258,14.444-40.776,2.209-55.438c-4.485-5.372-11.527-11.292-17.844-11.837c-9.705-0.836-19.791,2.757-31.086,4.705
		c0-6.039,0-14.081,0-23.108C135.694,425.752,129.343,426.659,120.908,427.86z M385.353,223.965c8.529,0.585,12.76,1.7,16.659,0.991
		c12.987-2.356,19.082,3.978,23.791,15.282c6.764,16.244,15.196,31.788,22.825,47.674c9.435,19.649,13.33,21.378,36.119,15.081
		c-0.243-5.104-0.495-10.397-0.837-17.573c-20.021,6.265-24.185-6.573-28.549-20.08c-3.987-12.343-9.057-24.337-13.68-36.473
		c-9.902-25.996-19.703-52.033-29.908-77.909c-1.144-2.901-4.362-5.339-7.204-6.979c-0.742-0.427-5.038,2.697-5.412,4.631
		C394.434,173.008,390.129,197.486,385.353,223.965z M477.874,465.736c-22.094-2.926-38.813,3.991-45.329,19.161
		c-4.529,10.54-4.602,21.349,5.058,29.278c13.68,11.229,25.62,3.643,36.352-5.391c6.609,16.107,17.208,5.882,27.036,6.514
		c0-15.609,0.003-29.949-0.003-44.291c0-1.393,0.005-2.787-0.073-4.174c-0.978-17.35-12.342-29.333-29.522-28.118
		c-10.859,0.766-21.446,5.407-32.156,8.314c0.283,2.5,0.567,5.004,0.852,7.505c4.484,0.239,9.365,1.74,13.379,0.481
		C464.938,451.421,473.009,453.631,477.874,465.736z M412.478,431.323c-9.903-3.708-19.275-8.892-29.233-10.543
		c-14.361-2.378-28.412,6.818-32.073,19.2c-4.103,13.873,3.145,23.043,13.892,30.417c6.889,4.729,14.407,8.848,20.277,14.626
		c3.254,3.203,6.299,10.569,4.729,13.69c-1.853,3.687-8.976,6.944-13.483,6.558c-7.017-0.607-13.755-4.446-21.353-7.179
		c-1.906,2.694-3.952,5.588-5.95,8.409c15.539,13.833,36.486,17.637,53.494,10.123c18.946-8.374,23.032-27.066,8.271-41.417
		c-6.897-6.707-16.228-10.901-23.179-17.567c-4.433-4.25-6.523-10.945-9.665-16.544c6.217-0.443,13.392-3.067,18.432-0.845
		C405.041,443.957,408.472,441.552,412.478,431.323z M313.146,506.086c-0.083-2.108-0.165-4.22-0.248-6.331
		c-5.294-0.382-10.69-1.597-15.858-0.962c-9.218,1.134-18.87,5.637-26.331-8.055c12.76-1.967,24.133-3.274,35.269-5.68
		c3.834-0.828,9.277-3.724,10.214-6.818c4.254-14.037-10.038-34.318-24.805-36.606c-15.955-2.474-30.849,5.456-39.107,20.825
		c-8.479,15.778-7.286,35.481,2.861,47.266c9.31,10.813,23.076,12.814,41.055,5.399
		C302.087,512.697,307.509,509.131,313.146,506.086z M372.925,100.334c4.543,10.308,7.486,21.79,13.994,30.657
		c10.301,14.035,27.519,12.49,34.454-3.432c4.327-9.938,5.651-22.438,4.324-33.302c-2.257-18.48-15.388-30.423-27.902-29.178
		C385.35,66.316,375.726,81.062,372.925,100.334z M232.922,425.703c-21.467-0.038-21.45-0.038-22.871,19.313
		c-0.408,5.558-1.426,11.112-1.34,16.655c0.23,14.819,0.049,29.744,1.912,44.387c0.583,4.584,7.424,12.063,10.918,11.798
		c6.659-0.501,13.111-5.389,19.259-9.099c0.82-0.496-0.489-6.919-1.054-6.957c-15.864-1.055-10.258-13.195-10.137-21.044
		C229.888,462.768,231.674,444.805,232.922,425.703z M510.972,518.074c7.622-0.343,14.996-0.673,21.808-0.98
		c0-27.179,0-52.45,0-79.013c-7.981,0.49-15.064,0.927-21.808,1.341C510.972,465.974,510.972,490.855,510.972,518.074z M223,582.001
		c-5.301-6.669-10.044-12.635-14.532-18.281c4.617-6.404,8.503-11.796,12.389-17.187c-1.309-1.318-2.619-2.637-3.928-3.958
		c-5.677,4.846-11.355,9.692-17.551,14.979c-0.293-4.521-0.572-8.834-0.853-13.149c-1.314-0.629-2.63-1.256-3.944-1.885
		c-2.019,3.163-5.334,6.151-5.782,9.521c-0.904,6.808-0.799,13.885-0.053,20.733c0.513,4.721,2.806,9.245,4.302,13.86
		c1.951-4.223,3.852-8.47,5.898-12.646c0.336-0.687,1.299-1.067,1.917-1.547C209.243,573.106,208.173,592.287,223,582.001z
		 M408.803,568.83c-0.391-10.621-4.515-17.206-14.741-17.789c-9.143-0.52-17.06,8.426-16.49,18.532
		c0.55,9.769,4.765,17.982,15.597,17.565C404.396,586.705,408.52,578.299,408.803,568.83z M267.823,587.081
		c15.063-2.762,9.432-14.263,9.058-21.458c-0.703-13.492-11.397-20.501-26.633-12.786c-6.438,3.261-5.441,21.201-8.133,33.931
		c22.508-0.122,4.015-24.914,22.952-25.908C265.901,568.803,266.734,576.729,267.823,587.081z M425.844,560.225
		c2.36,0.209,4.72,0.419,7.08,0.629c0.518,6.505,0.743,13.051,1.717,19.485c0.33,2.183,2.16,4.8,4.058,5.83
		c1.128,0.612,5.45-1.6,5.399-2.343c-0.641-9.398,0.951-20.695-3.791-27.476c-3.346-4.786-15.539-4.506-23.612-3.955
		c-1.688,0.114-2.755,11.294-3.848,17.421c-0.48,2.702-1.057,5.767-0.249,8.224c1.022,3.105,3.415,5.764,5.217,8.616
		c1.614-2.705,3.935-5.228,4.696-8.153C424.066,572.526,424.782,566.329,425.844,560.225z M344.012,557.419
		c-0.327-2.166-0.654-4.335-0.982-6.5c-6.633,1.574-15.662,0.967-19.454,5.13c-11.499,12.623,7.428,14.258,11.423,23.323
		c-5.766,0-9.922,0-14.077,0c-0.292,1.466-0.584,2.929-0.876,4.392c5.848,1.177,11.798,3.576,17.504,3.089
		c3.646-0.313,10.237-6.538,9.857-7.298c-3.442-6.911-8.128-13.204-12.677-20.012C336.903,559.045,340.457,558.233,344.012,557.419z
		 M374.142,582.205c-12.143-6.29-13.653-14.86-6.628-26.214c1.424-2.299-0.232-7.304-1.842-10.33
		c-0.757-1.425-5.891-2.402-7.082-1.356c-3.146,2.765-7.16,6.672-7.302,10.262c-0.271,6.849,2.179,13.762,3.023,20.706
		C355.896,588.329,361.809,590.587,374.142,582.205z M520.108,402.831c-5.848,7.1-12.877,12.114-12.217,15.722
		c0.83,4.524,8.066,11.046,12.352,10.909c4.641-0.149,9.064-6.976,13.582-10.891C530.049,414.237,526.272,409.906,520.108,402.831z
		 M231.336,585.474c10.072-0.351,11.986-9.035,7.473-33.906C229.045,553.123,228.116,557.34,231.336,585.474z M426.227,173.258
		c3.533,10.313,18.141,16.274,24.772,11.027c1.433-1.133,2.56-4.233,2.04-5.857c-0.647-2.032-3.037-4.792-4.858-4.939
		C441.055,172.92,433.856,173.258,426.227,173.258z M411.193,248.729c-8.544,0.411-14.215,0.681-21.195,1.016
		c1.866,5.745,3.215,9.894,5.427,16.701C400.932,260.261,404.989,255.703,411.193,248.729z M364.48,246.91
		c5.08-0.719,9.351-1.321,15.771-2.231c-5.038-7.175-8.583-12.22-14.222-20.248C365.367,234.044,364.998,239.408,364.48,246.91z
		 M373.429,279.653c5.367,6.285,9.315,10.907,14.733,17.252c0-8.856,0-14.885,0-21.918
		C383.283,276.532,379.531,277.719,373.429,279.653z"/>
	<path class="st1" d="M20.79,511.316c9.793-25.477,19.153-51.135,29.765-76.265c1.997-4.729,8.486-8.902,13.779-10.61
		c10.478-3.378,17.445,1.362,20.974,12.163c8.194,25.067,16.927,49.958,26.314,77.474c-10.626,1.602-18.925,2.853-28.092,4.233
		c-2.062-10.229-2.179-19.562-17.01-18.745c-13.65,0.752-19.683,5.176-18.566,19.914c-10.238-2.027-18.701-3.7-27.163-5.375
		C20.79,513.177,20.79,512.245,20.79,511.316z M77.355,484.48c-3.627-12.375-6.718-22.917-9.808-33.46
		c-1.219,0.02-2.438,0.038-3.659,0.061c-3.044,10.7-6.088,21.397-9.503,33.399C62.412,484.48,68.63,484.48,77.355,484.48z"/>
	<path class="st1" d="M578.685,508.526c-8.739,3.078-17.477,6.156-26.216,9.234c-3.331-9.563-8.782-18.968-9.515-28.728
		c-1.206-16.059,0.124-32.387,1.34-48.53c1.429-18.948,1.871-18.913,23.546-17.971c-1.007,14.563-2.095,29.109-2.984,43.67
		c-0.452,7.394-0.583,14.809-0.789,22.215c-0.285,10.295,4.393,14.489,14.618,11.741
		C578.685,502.947,578.685,505.737,578.685,508.526z"/>
	<path class="st1" d="M285.79,597.79c1.556-2.008,2.719-5.046,4.744-5.813c4.634-1.757,9.687-2.405,14.062-6.521
		c-5.439,0-12.257,2.005-15.951-0.534c-4.14-2.844-7.25-9.668-7.652-14.996c-1.099-14.604,8.111-18.933,35.923-17.257
		c-1.824,15.323,5.37,31.942-8.81,45.122C300.667,597.79,293.228,597.79,285.79,597.79z M308.775,567.413
		c-4.846-2.871-8.989-6.456-10.004-5.721c-3.196,2.315-5.979,5.988-7.267,9.709c-0.431,1.242,5.384,6.45,6.182,6.001
		C301.2,575.428,303.923,572.047,308.775,567.413z"/>
	<path class="st1" d="M335.665,18.214c0,69.429,0,134.685,0,201.011c6.252-4.045,11.696-8.938,18.076-11.297
		c6.028-2.228,13.04-1.79,20.019-1.286c-16.405,9.545-34.793,18.265-38.458,37.647c-2.67,14.108-2.395,32.185,4.403,43.975
		c14.899,25.838,47.33,25.819,76.712,2.166c-1.444,5.596-2.5,9.685-3.695,14.32c3.46,1.123,6.682,2.166,11.405,3.7
		c-36.449,49.208-77.989,87.029-142.69,85.684c-46.829-0.976-96.902-40.892-109.621-87.242c54.429,0,108.461,0,164.028,0
		c-3.864-11.983-9.075-16.84-21.005-16.712c-59.913,0.643-119.839,0.3-179.76,0.302c-5.022,0-10.042,0-19.338,0
		C189.651,198.982,261.408,110.144,335.665,18.214z M247.678,229.8c-3.916-11.561-6.642-21.36-10.568-30.649
		c-3.067-7.26-9.601-8.769-13.589-1.665c-4.91,8.745-7.764,18.717-10.658,28.415c-0.312,1.046,5.008,3.771,7.716,5.718
		c5.872-10.463,11.502-7.175,17.768-0.163C239.24,232.456,243.261,230.661,247.678,229.8z M308.691,231.104
		c0.945-1.31,1.891-2.621,2.835-3.931c-3.825-4.98-7.65-9.957-11.544-15.026c3.359-5.119,6.538-9.965,9.717-14.808
		c-1.069-1.24-2.138-2.479-3.207-3.718c-4.748,3.772-9.494,7.548-12.852,10.218c-2.336-3.002-4.702-6.039-7.069-9.079
		c-1.47,3.367-3.91,6.646-4.208,10.114c-0.632,7.353-0.383,14.814,0.06,22.196c0.1,1.648,2.363,4.244,3.866,4.421
		c1.449,0.172,3.845-1.893,4.669-3.552c1.173-2.354,1.287-5.233,1.642-6.892C298.545,224.763,303.617,227.934,308.691,231.104z
		 M262.165,202.627c4.063-0.643,7.659-1.212,13.112-2.076c-8.001-7.614-15.259-9.662-21.77-2.653
		c-7.403,7.968-0.776,13.048,5.511,17.772c2.828,2.125,5.084,5.009,10.1,10.071c-8.646,0-13.077,0-21.052,0
		c10.521,8.428,19.785,10.341,25.971,3.059C286.202,214.482,264.625,212.673,262.165,202.627z"/>
	<path class="st1" d="M120.908,427.86c8.435-1.201,14.786-2.108,22.837-3.255c0,9.027,0,17.069,0,23.108
		c11.295-1.948,21.381-5.541,31.086-4.705c6.317,0.545,13.359,6.465,17.844,11.837c12.235,14.661,10.613,41.18-2.209,55.438
		c-11.221,12.477-24.75,12.256-44.72-0.732c-5.136,9.586-7.898,10.254-24.838,6.625C120.908,486.889,120.908,457.929,120.908,427.86
		z M160.805,463.611c-8.035,2.221-16.332,6.051-16.043,17.614c0.294,11.845,9.153,15.573,18.815,15.859
		c10.188,0.303,14.864-7.158,14.66-16.369C178.023,471.108,173.515,463.906,160.805,463.611z"/>
	<path class="st1" d="M385.353,223.965c4.776-26.479,9.081-50.957,13.805-75.354c0.374-1.934,4.67-5.059,5.412-4.631
		c2.842,1.64,6.061,4.078,7.204,6.979c10.205,25.876,20.006,51.913,29.908,77.909c4.623,12.136,9.692,24.13,13.68,36.473
		c4.364,13.506,8.528,26.345,28.549,20.08c0.342,7.175,0.594,12.468,0.837,17.573c-22.789,6.298-26.685,4.568-36.119-15.081
		c-7.629-15.887-16.062-31.43-22.825-47.674c-4.709-11.305-10.804-17.639-23.791-15.282
		C398.112,225.665,393.882,224.55,385.353,223.965z"/>
	<path class="st1" d="M477.874,465.736c-4.865-12.105-12.936-14.315-24.408-10.72c-4.014,1.259-8.895-0.242-13.379-0.481
		c-0.284-2.501-0.568-5.005-0.852-7.505c10.71-2.907,21.297-7.549,32.156-8.314c17.181-1.215,28.545,10.769,29.522,28.118
		c0.078,1.387,0.073,2.781,0.073,4.174c0.006,14.342,0.003,28.682,0.003,44.291c-9.828-0.632-20.427,9.594-27.036-6.514
		c-10.731,9.033-22.672,16.62-36.352,5.391c-9.659-7.93-9.587-18.738-5.058-29.278C439.061,469.728,455.78,462.811,477.874,465.736z
		 M481.77,488.84c-6.899-3.842-10.65-7.596-12.993-6.859c-3.893,1.22-7.182,5.083-9.907,8.488c-0.387,0.481,4.403,7.02,5.815,6.679
		C469.384,496.018,473.635,493.029,481.77,488.84z"/>
	<path class="st1" d="M412.478,431.323c-4.006,10.229-7.437,12.634-15.842,8.929c-5.04-2.223-12.215,0.401-18.432,0.845
		c3.142,5.599,5.232,12.294,9.665,16.544c6.951,6.666,16.281,10.86,23.179,17.567c14.762,14.351,10.676,33.043-8.271,41.417
		c-17.008,7.514-37.955,3.71-53.494-10.123c1.998-2.821,4.044-5.715,5.95-8.409c7.598,2.732,14.336,6.571,21.353,7.179
		c4.508,0.387,11.631-2.871,13.483-6.558c1.569-3.121-1.476-10.487-4.729-13.69c-5.87-5.778-13.389-9.897-20.277-14.626
		c-10.747-7.374-17.994-16.544-13.892-30.417c3.661-12.382,17.712-21.578,32.073-19.2
		C393.202,422.432,402.574,427.615,412.478,431.323z"/>
	<path class="st1" d="M313.146,506.086c-5.638,3.045-11.06,6.611-16.951,9.038c-17.979,7.415-31.746,5.413-41.055-5.399
		c-10.147-11.784-11.34-31.487-2.861-47.266c8.258-15.369,23.152-23.299,39.107-20.825c14.767,2.288,29.059,22.569,24.805,36.606
		c-0.937,3.095-6.38,5.99-10.214,6.818c-11.136,2.405-22.509,3.713-35.269,5.68c7.461,13.691,17.113,9.188,26.331,8.055
		c5.168-0.635,10.564,0.58,15.858,0.962C312.981,501.866,313.063,503.978,313.146,506.086z M293.598,471.563
		c0.602-1.253,1.204-2.507,1.808-3.76c-3.707-2.896-8.5-8.889-10.893-8.047c-5.146,1.807-9.055,7.135-13.469,11.021
		c0.91,1.149,1.82,2.3,2.729,3.452C280.382,473.339,286.991,472.451,293.598,471.563z"/>
	<path class="st1" d="M372.925,100.334c2.801-19.273,12.425-34.019,24.87-35.255c12.515-1.245,25.646,10.697,27.902,29.178
		c1.327,10.864,0.003,23.365-4.324,33.302c-6.936,15.922-24.153,17.467-34.454,3.432
		C380.411,122.125,377.468,110.642,372.925,100.334z"/>
	<path class="st1" d="M232.922,425.703c-1.248,19.102-3.034,37.064-3.312,55.054c-0.121,7.849-5.727,19.989,10.137,21.044
		c0.565,0.038,1.874,6.461,1.054,6.957c-6.148,3.71-12.601,8.598-19.259,9.099c-3.494,0.265-10.335-7.214-10.918-11.798
		c-1.863-14.643-1.682-29.567-1.912-44.387c-0.086-5.543,0.932-11.098,1.34-16.655C211.472,425.665,211.455,425.665,232.922,425.703
		z"/>
	<path class="st1" d="M510.972,518.074c0-27.219,0-52.101,0-78.652c6.743-0.414,13.826-0.851,21.808-1.341
		c0,26.563,0,51.834,0,79.013C525.968,517.401,518.594,517.731,510.972,518.074z"/>
	<path class="st1" d="M223,582.001c-14.827,10.286-13.758-8.895-22.136-9.559c-0.618,0.479-1.581,0.86-1.917,1.547
		c-2.046,4.176-3.947,8.423-5.898,12.646c-1.497-4.615-3.789-9.14-4.302-13.86c-0.747-6.849-0.852-13.926,0.053-20.733
		c0.448-3.369,3.764-6.357,5.782-9.521c1.314,0.629,2.63,1.256,3.944,1.885c0.281,4.315,0.56,8.628,0.853,13.149
		c6.196-5.287,11.875-10.134,17.551-14.979c1.309,1.321,2.619,2.64,3.928,3.958c-3.886,5.391-7.772,10.782-12.389,17.187
		C212.957,569.366,217.699,575.332,223,582.001z"/>
	<path class="st1" d="M408.803,568.83c-0.283,9.469-4.406,17.875-15.635,18.309c-10.832,0.417-15.047-7.797-15.597-17.565
		c-0.569-10.106,7.348-19.052,16.49-18.532C404.288,551.624,408.412,558.209,408.803,568.83z"/>
	<path class="st1" d="M267.823,587.081c-1.088-10.352-1.922-18.278-2.757-26.222c-18.937,0.994-0.444,25.786-22.952,25.908
		c2.691-12.729,1.694-30.67,8.133-33.931c15.236-7.715,25.931-0.706,26.633,12.786C277.255,572.818,282.886,584.319,267.823,587.081
		z"/>
	<path class="st1" d="M425.844,560.225c-1.062,6.104-1.777,12.302-3.333,18.278c-0.762,2.926-3.082,5.448-4.696,8.153
		c-1.802-2.853-4.194-5.511-5.217-8.616c-0.808-2.457-0.231-5.521,0.249-8.224c1.093-6.127,2.159-17.307,3.848-17.421
		c8.073-0.551,20.267-0.831,23.612,3.955c4.742,6.78,3.15,18.077,3.791,27.476c0.051,0.743-4.271,2.955-5.399,2.343
		c-1.897-1.03-3.728-3.647-4.058-5.83c-0.974-6.435-1.199-12.98-1.717-19.485C430.563,560.644,428.204,560.434,425.844,560.225z"/>
	<path class="st1" d="M344.012,557.419c-3.555,0.814-7.108,1.626-9.282,2.124c4.549,6.808,9.234,13.101,12.677,20.012
		c0.38,0.76-6.211,6.984-9.857,7.298c-5.706,0.487-11.656-1.912-17.504-3.089c0.292-1.463,0.584-2.926,0.876-4.392
		c4.155,0,8.312,0,14.077,0c-3.995-9.065-22.922-10.7-11.423-23.323c3.792-4.163,12.821-3.556,19.454-5.13
		C343.357,553.084,343.685,555.253,344.012,557.419z"/>
	<path class="st1" d="M374.142,582.205c-12.333,8.382-18.245,6.124-19.83-6.933c-0.845-6.944-3.294-13.857-3.023-20.706
		c0.142-3.59,4.156-7.497,7.302-10.262c1.191-1.046,6.325-0.068,7.082,1.356c1.609,3.026,3.266,8.031,1.842,10.33
		C360.488,567.345,361.999,575.915,374.142,582.205z"/>
	<path class="st1" d="M520.108,402.831c6.164,7.075,9.94,11.406,13.717,15.74c-4.518,3.915-8.941,10.741-13.582,10.891
		c-4.285,0.137-11.521-6.385-12.352-10.909C507.231,414.945,514.261,409.931,520.108,402.831z"/>
	<path class="st1" d="M231.336,585.474c-3.22-28.134-2.291-32.351,7.473-33.906C243.322,576.438,241.409,585.123,231.336,585.474z"
		/>
	<path class="st1" d="M426.227,173.258c7.63,0,14.828-0.338,21.954,0.231c1.821,0.147,4.211,2.907,4.858,4.939
		c0.52,1.624-0.607,4.724-2.04,5.857C444.367,189.532,429.76,183.572,426.227,173.258z"/>
	<path class="st1" d="M411.193,248.729c-6.204,6.974-10.262,11.531-15.769,17.717c-2.212-6.807-3.561-10.956-5.427-16.701
		C396.979,249.411,402.649,249.141,411.193,248.729z"/>
	<path class="st1" d="M364.48,246.91c0.518-7.502,0.887-12.866,1.55-22.479c5.639,8.028,9.184,13.073,14.222,20.248
		C373.831,245.588,369.561,246.19,364.48,246.91z"/>
	<path class="st1" d="M373.429,279.653c6.103-1.934,9.854-3.122,14.733-4.667c0,7.034,0,13.062,0,21.918
		C382.744,290.561,378.796,285.938,373.429,279.653z"/>
	<path class="st0" d="M77.355,484.48c-8.726,0-14.943,0-22.97,0c3.415-12.002,6.459-22.699,9.503-33.399
		c1.221-0.022,2.439-0.041,3.659-0.061C70.638,461.563,73.728,472.105,77.355,484.48z"/>
	<path class="st0" d="M308.775,567.413c-4.853,4.634-7.575,8.015-11.088,9.989c-0.798,0.449-6.613-4.759-6.182-6.001
		c1.288-3.721,4.071-7.394,7.267-9.709C299.786,560.957,303.93,564.542,308.775,567.413z"/>
	<path class="st0" d="M247.678,229.8c-4.417,0.861-8.438,2.656-9.332,1.656c-6.266-7.012-11.896-10.3-17.768,0.163
		c-2.708-1.947-8.028-4.671-7.716-5.718c2.895-9.698,5.748-19.67,10.658-28.415c3.988-7.104,10.521-5.595,13.589,1.665
		C241.037,208.44,243.762,218.239,247.678,229.8z"/>
	<path class="st0" d="M308.691,231.104c-5.074-3.171-10.146-6.342-16.093-10.058c-0.354,1.659-0.469,4.539-1.642,6.892
		c-0.824,1.659-3.22,3.724-4.669,3.552c-1.502-0.177-3.766-2.773-3.866-4.421c-0.442-7.382-0.692-14.844-0.06-22.196
		c0.298-3.468,2.739-6.748,4.208-10.114c2.367,3.04,4.733,6.077,7.069,9.079c3.357-2.669,8.104-6.445,12.852-10.218
		c1.069,1.239,2.138,2.479,3.207,3.718c-3.18,4.843-6.358,9.689-9.717,14.808c3.894,5.069,7.719,10.046,11.544,15.026
		C310.582,228.484,309.637,229.794,308.691,231.104z"/>
	<path class="st0" d="M262.165,202.627c2.459,10.046,24.037,11.855,11.873,26.173c-6.186,7.282-15.451,5.369-25.971-3.059
		c7.975,0,12.405,0,21.052,0c-5.015-5.062-7.272-7.946-10.1-10.071c-6.287-4.724-12.914-9.804-5.511-17.772
		c6.51-7.009,13.769-4.961,21.77,2.653C269.824,201.415,266.228,201.984,262.165,202.627z"/>
	<path class="st0" d="M160.805,463.611c12.709,0.295,17.218,7.497,17.432,17.104c0.204,9.211-4.472,16.672-14.66,16.369
		c-9.663-0.286-18.521-4.015-18.815-15.859C144.473,469.662,152.771,465.832,160.805,463.611z"/>
	<path class="st0" d="M481.77,488.84c-8.135,4.189-12.386,7.178-17.085,8.308c-1.412,0.341-6.202-6.197-5.815-6.679
		c2.726-3.405,6.015-7.269,9.907-8.488C471.119,481.244,474.87,484.998,481.77,488.84z"/>
	<path class="st0" d="M293.598,471.563c-6.607,0.888-13.216,1.775-19.825,2.667c-0.91-1.152-1.819-2.303-2.729-3.452
		c4.415-3.887,8.324-9.215,13.469-11.021c2.393-0.842,7.186,5.151,10.893,8.047C294.802,469.057,294.2,470.311,293.598,471.563z"/>
</g>
</svg>
