<?xml version="1.0" encoding="utf-8"?>
<!-- Generator: Adobe Illustrator 16.0.0, SVG Export Plug-In . SVG Version: 6.00 Build 0)  -->
<!DOCTYPE svg PUBLIC "-//W3C//DTD SVG 1.1//EN" "http://www.w3.org/Graphics/SVG/1.1/DTD/svg11.dtd">
<svg version="1.1" id="Layer_1" xmlns="http://www.w3.org/2000/svg" xmlns:xlink="http://www.w3.org/1999/xlink" x="0px" y="0px"
	 width="600px" height="230.715px" viewBox="0 0 600 230.715" style="enable-background:new 0 0 600 230.715;" xml:space="preserve"
	>
<style type="text/css">
<![CDATA[
	.st0{enable-background:new    ;}
	.st1{fill:none;stroke:#000000;stroke-width:9.6001;stroke-miterlimit:10;}
]]>
</style>
<path d="M278.759,55.798h47.9c12.621,0,23.682,4.823,32.63,15.008c8.947,9.648,13.163,21.977,13.163,35.915
	c0,15.001-4.216,27.329-13.163,38.063c-8.948,10.717-20.009,15.535-32.63,15.535h-47.9V55.798z M326.125,154.421
	c10.527,0,19.482-4.819,26.849-13.932c7.37-9.112,11.055-20.372,11.055-33.234c0-12.326-3.685-22.509-11.055-31.088
	c-7.366-8.575-16.321-12.862-26.849-12.862h-39.473v91.116H326.125z"/>
<path d="M398.762,161.392V56.333h77.907v6.973h-70.012v40.198h63.698v6.432h-63.698v44.486h69.486v6.971H398.762z"/>
<path d="M160.326,224.103"/>
<path d="M254.224,149.752c-3.156,25.191-31.409,74.351-31.409,74.351h-65.122c0,0-28.106-48.616-31.261-73.814
	c0,0,20.393,38.928,64.158,38.928C234.358,189.216,254.224,149.752,254.224,149.752z"/>
<path d="M243.902,62.895c-22.109-39.126-53.495-60.917-53.495-60.917l0,0c0,0-31.025,21.791-53.127,60.917
	c0,0,23.533-25.765,53.31-25.765C220.368,37.129,243.902,62.895,243.902,62.895z"/>
<g>
	<g>
		<path d="M100.269,227.589c7.373-10.72,20.529-21.971,32.64-22.514c-5.269-8.031-11.057-16.084-16.319-24.122
			C116.589,180.953,100.269,200.339,100.269,227.589z"/>
	</g>
</g>
<g>
	<g>
		<path d="M280.062,227.589c-7.376-10.72-20.532-21.971-32.639-22.514c5.268-8.031,11.055-16.084,16.317-24.122
			C263.74,180.953,280.062,200.339,280.062,227.589z"/>
	</g>
</g>
<g class="st0">
	<path d="M298.07,215.261l4.706-0.411c0.22,1.913,0.737,3.491,1.554,4.715c0.816,1.231,2.078,2.226,3.79,2.986
		c1.711,0.759,3.642,1.145,5.784,1.145c1.903,0,3.576-0.292,5.041-0.868c1.451-0.582,2.538-1.36,3.243-2.371
		c0.712-0.999,1.071-2.097,1.071-3.277c0-1.21-0.345-2.265-1.031-3.16c-0.688-0.896-1.813-1.649-3.388-2.264
		c-1.012-0.397-3.248-1.021-6.709-1.866c-3.463-0.849-5.888-1.649-7.277-2.399c-1.8-0.956-3.14-2.151-4.02-3.571
		c-0.885-1.421-1.323-3.01-1.323-4.782c0-1.926,0.539-3.741,1.617-5.424c1.083-1.682,2.657-2.967,4.732-3.839
		c2.066-0.871,4.372-1.304,6.914-1.304c2.789,0,5.255,0.459,7.386,1.374c2.129,0.914,3.774,2.259,4.923,4.047
		c1.145,1.774,1.765,3.795,1.852,6.037l-4.786,0.369c-0.253-2.423-1.125-4.261-2.604-5.493c-1.482-1.242-3.668-1.866-6.564-1.866
		c-3.019,0-5.212,0.573-6.596,1.693c-1.38,1.128-2.069,2.487-2.069,4.073c0,1.377,0.488,2.507,1.467,3.393
		c0.955,0.896,3.463,1.811,7.518,2.744c4.05,0.932,6.835,1.747,8.34,2.447c2.192,1.024,3.81,2.338,4.856,3.911
		c1.045,1.581,1.569,3.399,1.569,5.453c0,2.043-0.572,3.969-1.72,5.775c-1.149,1.809-2.799,3.206-4.945,4.22
		c-2.156,0.996-4.575,1.499-7.268,1.499c-3.406,0-6.271-0.506-8.569-1.52c-2.304-1.007-4.112-2.535-5.424-4.566
		C298.828,220.126,298.14,217.83,298.07,215.261z"/>
</g>
<g class="st0">
	<path d="M348.867,227.589v-38.373h4.988v15.761h19.584v-15.761h4.988v38.373h-4.988v-18.08h-19.584v18.08H348.867z"/>
</g>
<g class="st0">
	<path d="M424.507,189.216h4.987v22.169c0,3.857-0.432,6.923-1.287,9.193c-0.86,2.268-2.407,4.11-4.644,5.535
		c-2.236,1.424-5.171,2.133-8.807,2.133c-3.526,0-6.409-0.624-8.662-1.855c-2.242-1.243-3.845-3.04-4.8-5.383
		c-0.958-2.348-1.445-5.55-1.445-9.623v-22.169h4.989v22.15c0,3.332,0.308,5.783,0.913,7.364c0.615,1.579,1.652,2.793,3.141,3.651
		c1.478,0.857,3.285,1.284,5.434,1.284c3.663,0,6.28-0.85,7.83-2.54c1.563-1.688,2.351-4.949,2.351-9.76V189.216z"/>
</g>
<g class="st0">
	<path d="M456.208,227.589v-33.844h-12.414v-4.529h29.866v4.529h-12.468v33.844H456.208z"/>
</g>
<g class="st0">
	<path d="M500.427,227.589v-33.844h-12.414v-4.529h29.869v4.529h-12.47v33.844H500.427z"/>
</g>
<g class="st0">
	<path d="M533.268,227.589v-38.373h4.987v33.846h18.559v4.527H533.268z"/>
</g>
<g class="st0">
	<path d="M570.94,227.589v-38.373h27.252v4.529h-22.264v11.761h20.85v4.491h-20.85v13.064h23.138v4.527H570.94z"/>
</g>
<path class="st1" d="M190.856,55.861c29.269,0,53,25.706,53,57.417c0,31.722-23.731,57.417-53,57.417
	c-29.277,0-53.005-25.695-53.005-57.417C137.851,81.567,161.579,55.861,190.856,55.861z"/>
<path d="M17.072,152.827C5.866,141.85-0.031,128.579-0.031,112.99c0-15.583,5.897-28.859,17.103-39.826
	c11.21-10.966,24.778-16.738,41.295-16.738c12.978,0,24.188,2.885,33.631,9.234c8.85,5.773,14.742,13.854,17.105,24.247h-8.849
	c-1.769-7.51-6.49-13.85-14.157-18.474c-7.671-5.194-17.112-7.501-27.731-7.501c-13.561,0-25.365,4.618-34.805,14.428
	c-9.436,9.812-14.74,21.353-14.74,35.209c0,13.861,4.71,25.398,14.74,35.217c9.44,9.811,21.244,14.429,34.805,14.429
	c11.806,0,21.241-2.897,28.913-8.663c7.669-5.766,11.801-13.275,12.976-23.091h8.849c-1.183,11.544-6.491,21.365-15.339,28.284
	c-8.847,6.938-20.646,10.384-34.807,10.384C41.85,168.98,28.282,163.788,17.072,152.827z"/>
</svg>
